<?xml version="1.0" encoding="UTF-8" standalone="no"?>
<!-- Created with Inkscape (http://www.inkscape.org/) -->

<svg
   version="1.1"
   id="svg4160"
   width="332.22763"
   height="236.79141"
   viewBox="0 0 332.22763 236.79141"
   sodipodi:docname="hammer1a.svg"
   inkscape:version="1.2.2 (732a01da63, 2022-12-09, custom)"
   xmlns:inkscape="http://www.inkscape.org/namespaces/inkscape"
   xmlns:sodipodi="http://sodipodi.sourceforge.net/DTD/sodipodi-0.dtd"
   xmlns="http://www.w3.org/2000/svg"
   xmlns:svg="http://www.w3.org/2000/svg">
  <defs
     id="defs4164" />
  <sodipodi:namedview
     id="namedview4162"
     pagecolor="#ffffff"
     bordercolor="#000000"
     borderopacity="0.25"
     inkscape:showpageshadow="2"
     inkscape:pageopacity="0.0"
     inkscape:pagecheckerboard="0"
     inkscape:deskcolor="#d1d1d1"
     showgrid="false"
     inkscape:zoom="0.95169365"
     inkscape:cx="282.65398"
     inkscape:cy="203.84711"
     inkscape:window-width="1920"
     inkscape:window-height="1031"
     inkscape:window-x="0"
     inkscape:window-y="25"
     inkscape:window-maximized="1"
     inkscape:current-layer="layer1" />
  <g
     inkscape:groupmode="layer"
     id="layer1"
     inkscape:label="Layer 1"
     transform="translate(226.95089,159.01598)">
    <path
       style="fill:#000000;stroke-width:1.19082"
       d="m -167.15504,74.080919 c -0.7569,-2.911742 -2.4879,-11.456581 -3.84666,-18.988538 -1.35876,-7.531958 -2.75661,-15.168113 -3.10633,-16.969234 -0.83021,-4.275685 -2.57903,-4.130679 -8.27034,0.685773 -9.56583,8.095385 -25.70282,20.069397 -26.27532,19.496897 -0.32566,-0.32569 3.22096,-7.880307 7.88141,-16.788071 4.66045,-8.907776 8.2609,-16.19595 8.00101,-16.19595 -0.2599,0 -8.05663,2.650724 -17.32608,5.890505 -9.26945,3.239776 -16.85354,5.54345 -16.85354,5.119279 0,-0.424172 6.43045,-7.275671 14.28988,-15.22557 L -198.37113,6.6516502 V -48.913144 c 0,-34.510467 0.43099,-55.564806 1.13743,-55.564806 0.97454,0 17.75659,-19.85908 38.65452,-45.7419 3.2194,-3.98736 6.43462,-7.65511 7.14494,-8.15057 0.7103,-0.49545 5.31049,-0.76339 10.22263,-0.59541 l 8.93118,0.30541 0.31516,36.02241 0.31519,36.022404 H -19.295331 93.059413 l 3.286859,2.585442 c 11.401168,8.968165 12.019578,34.322592 1.084319,44.457046 l -3.206962,2.972091 H -18.680892 -131.58543 l -0.3475,22.574584 -0.34749,22.5745799 14.21168,13.4465771 c 8.49313,8.035888 13.50753,13.582185 12.46174,13.783587 -0.96247,0.185359 -8.66968,-2.074604 -17.12714,-5.022119 -8.45745,-2.947526 -15.4923,-5.242098 -15.63301,-5.099058 -0.1407,0.143048 0.69911,2.135623 1.86623,4.427958 11.32863,22.250345 13.97463,28.04369 12.97411,28.406448 -0.64031,0.232136 -1.80008,-0.334286 -2.57727,-1.258771 -0.77718,-0.924477 -3.2886,-3.093633 -5.58094,-4.820327 -2.29233,-1.726705 -8.68778,-6.643268 -14.21211,-10.925707 -5.52432,-4.282428 -10.14519,-7.661937 -10.2686,-7.509999 -0.1234,0.151942 -1.36546,6.170821 -2.76011,13.375303 -6.59009,34.042987 -6.44794,33.58129 -8.2292,26.72889 z m 6.8418,-38.261896 c 0.0268,-1.103536 0.58952,-3.429512 1.25081,-5.168839 l 1.20235,-3.162422 6.83571,5.768051 c 3.75964,3.172424 9.24712,7.597714 12.19441,9.833987 2.94729,2.23627 6.09194,4.630241 6.98812,5.319929 0.89618,0.689703 -1.65334,-5.294672 -5.66559,-13.298613 -4.3185,-8.61487 -6.68391,-14.552364 -5.7973,-14.552018 0.82374,3.35e-4 4.445,1.124792 8.04724,2.498812 3.60224,1.37401 9.72766,3.491175 13.61204,4.704825 l 7.06251,2.206618 -10.61015,-10.659548 -10.61015,-10.6595364 h -29.82025 -29.82024 l -10.61015,10.6595364 -10.61015,10.659548 7.06251,-2.209785 c 3.88438,-1.215392 10.6535,-3.566911 15.04249,-5.22562 l 7.97999,-3.01582 -1.00553,2.60413 c -0.55304,1.432274 -2.97814,6.35522 -5.38913,10.93989 -5.16976,9.830701 -8.0338,16.374726 -6.84363,15.636966 0.46794,-0.290077 6.2095,-4.85313 12.75902,-10.140148 6.54953,-5.287017 12.44854,-9.62445 13.1089,-9.638729 0.66036,-0.01414 2.17207,5.198767 3.35934,11.584557 1.18728,6.38579 2.74589,14.557816 3.46359,18.160057 l 1.30489,6.549528 2.72995,-13.694469 c 1.50147,-7.531958 2.75176,-14.597362 2.7784,-15.700887 z m 23.86493,-111.121799 v -79.189754 h -6.3854 -6.3854 l -21.59895,26.45499 -21.59895,26.455 v 52.734761 52.7347541 h 27.98435 27.98435 z m 230.711981,32.51762 c 3.422314,-2.824454 6.384899,-11.430427 6.419429,-18.647732 0.0372,-7.547915 -1.99887,-13.546639 -6.018085,-17.740064 l -2.56801,-2.679353 H -19.198603 -130.4942 v 20.161176 c 0,20.001244 0.0212,20.164186 2.67936,20.5417 1.47364,0.209287 51.619891,0.277015 111.436118,0.15049 C 71.128957,-41.184 92.74645,-41.533012 94.263671,-42.785174 Z"
       id="path4641" />
  </g>
</svg>
