<?xml version="1.0" encoding="UTF-8" standalone="no"?>
<!-- Created with Inkscape (http://www.inkscape.org/) -->

<svg
   version="1.1"
   id="svg2708"
   width="733.8894"
   height="886.08875"
   viewBox="0 0 733.8894 886.08878"
   sodipodi:docname="m11.svg"
   inkscape:version="1.2.2 (732a01da63, 2022-12-09, custom)"
   xmlns:inkscape="http://www.inkscape.org/namespaces/inkscape"
   xmlns:sodipodi="http://sodipodi.sourceforge.net/DTD/sodipodi-0.dtd"
   xmlns="http://www.w3.org/2000/svg"
   xmlns:svg="http://www.w3.org/2000/svg">
  <defs
     id="defs2712" />
  <sodipodi:namedview
     id="namedview2710"
     pagecolor="#ffffff"
     bordercolor="#000000"
     borderopacity="0.25"
     inkscape:showpageshadow="2"
     inkscape:pageopacity="0.0"
     inkscape:pagecheckerboard="0"
     inkscape:deskcolor="#d1d1d1"
     showgrid="false"
     inkscape:zoom="1.0289025"
     inkscape:cx="232.28634"
     inkscape:cy="426.66821"
     inkscape:window-width="1920"
     inkscape:window-height="1031"
     inkscape:window-x="0"
     inkscape:window-y="25"
     inkscape:window-maximized="1"
     inkscape:current-layer="layer1" />
  <g
     inkscape:groupmode="layer"
     id="layer1"
     inkscape:label="Layer 1"
     transform="translate(-4724.2503,-749.94525)">
    <path
       style="fill:#000000;stroke-width:0.840612"
       d="m 4968.8671,1635.2809 c -2.7905,-0.6612 -3.5801,-1.2075 -10.0342,-6.9427 -1.9546,-1.7367 -4.0833,-3.1578 -4.7306,-3.1578 -2.0414,0 -3.3855,-2.5296 -3.4998,-6.5869 -0.061,-2.1564 -0.3776,-4.7289 -0.7041,-5.7164 -0.4293,-1.2985 0.028,-2.5349 1.6526,-4.4652 1.6462,-1.9564 2.3052,-3.7649 2.4671,-6.7698 0.1215,-2.2552 0.4865,-4.5302 0.8111,-5.0554 0.3246,-0.5252 0.3589,-2.9123 0.076,-5.3046 -0.2826,-2.3922 -0.6969,-7.1867 -0.9207,-10.6542 -0.2237,-3.4675 -0.6641,-8.1959 -0.9787,-10.5077 -0.3146,-2.3117 -0.6393,-5.7161 -0.7216,-7.5654 -0.2786,-6.2575 -2.3415,-15.1178 -4.1101,-17.6529 -1.3376,-1.9174 -1.7187,-3.6243 -1.5898,-7.1208 0.1,-2.7068 -0.2238,-4.8419 -0.7865,-5.1897 -0.7016,-0.4336 -0.6706,-0.9349 0.1165,-1.8834 0.7799,-0.9396 0.854,-2.047 0.2716,-4.0569 -0.4407,-1.5205 -0.9027,-6.5473 -1.0268,-11.1707 -0.1241,-4.6234 -0.2991,-9.7301 -0.3888,-11.3483 -0.09,-1.6182 0.1046,-3.9196 0.4319,-5.1143 0.3272,-1.1947 0.2197,-2.8427 -0.2389,-3.6622 -0.6202,-1.1082 -0.4141,-2.0591 0.8044,-3.7121 2.1452,-2.91 2.8779,-5.9035 3.3326,-13.6159 l 0.3743,-6.3502 -4.5354,0.046 c -3.6686,0.037 -5.1015,-0.386 -7.498,-2.2125 -2.6018,-1.9831 -3.9451,-2.312 -11.0291,-2.7003 -5.8627,-0.3213 -9.2404,-0.093 -12.3639,0.8341 -3.8758,1.151 -4.6167,1.7872 -7.5497,6.483 -4.7139,7.5469 -7.4586,10.6186 -9.9781,11.167 -1.223,0.2662 -4.0202,1.0947 -6.2161,1.841 -3.4919,1.1869 -5.0352,1.227 -12.3053,0.3196 -8.1671,-1.0192 -8.3972,-1 -13.1344,1.0951 -2.652,1.1728 -5.18,2.1323 -5.6178,2.1323 -0.4379,0 -1.3368,0.5407 -1.9976,1.2015 -1.6992,1.6993 -8.759,2.9264 -17.5922,3.0579 -10.2563,0.1527 -18.0732,-1.0056 -18.0732,-2.6779 0,-0.4074 -0.7565,-0.7409 -1.6812,-0.7409 -0.9247,0 -1.6812,-0.3482 -1.6812,-0.7737 0,-0.4256 -1.2238,-1.0427 -2.7197,-1.3712 -2.7141,-0.5961 -5.9561,-2.3498 -8.0582,-4.3589 -0.6109,-0.5839 -0.9027,-1.0617 -0.6483,-1.0617 0.2544,0 -1.6036,-2.0011 -4.1288,-4.4469 -2.9594,-2.8665 -4.783,-5.406 -5.1308,-7.1452 -0.2969,-1.484 -0.8493,-2.6982 -1.2277,-2.6982 -0.3784,0 -1.3334,-1.0926 -2.1223,-2.4281 -1.0505,-1.7784 -2.3565,-2.6035 -4.881,-3.0839 -4.0352,-0.7677 -14.2253,-0.7393 -20.3543,0.057 -3.3453,0.4346 -5.1157,0.1916 -7.9858,-1.0961 -2.0281,-0.9099 -4.6332,-1.9384 -5.7891,-2.2855 -3.645,-1.0947 -15.5363,-7.297 -15.8896,-8.2878 -0.186,-0.5216 -1.5503,-2.1012 -3.0316,-3.5101 -3.6698,-3.4906 -4.8274,-5.9104 -4.198,-8.776 0.2915,-1.3269 0.6737,-3.5482 0.8494,-4.9362 0.3978,-3.1438 3.5912,-8.2755 6.8741,-11.0461 2.2704,-1.9161 6.149,-8.6038 6.149,-10.6024 0,-0.4537 1.5131,-2.3025 3.3624,-4.1083 5.062,-4.9429 4.5692,-9.8888 -1.7317,-17.3796 -3.6745,-4.3684 -5.2603,-7.7743 -4.5953,-9.8694 0.2423,-0.7636 0.4973,-3.0779 0.5665,-5.1429 0.069,-2.0649 0.4205,-4.5575 0.7804,-5.5391 0.3791,-1.0342 0.2832,-2.1557 -0.2282,-2.6671 -0.6163,-0.6163 -0.078,-2.0747 1.7844,-4.8343 1.4669,-2.1735 2.8971,-5.1342 3.1782,-6.5796 1.802,-9.2635 18.6486,-21.0352 33.9188,-23.701 7.0175,-1.225 10.5717,-2.7856 11.4283,-5.0178 0.2522,-0.6572 1.8085,-2.0292 3.4585,-3.049 2.8132,-1.7386 2.8924,-1.9021 1.2711,-2.6256 -1.1237,-0.5014 -1.9043,-1.8683 -2.2301,-3.9054 -0.2755,-1.7236 -1.2634,-3.8238 -2.195,-4.6669 -2.7603,-2.4981 -2.3352,-8.864 0.9066,-13.5759 2.3046,-3.3495 2.4909,-4.0453 1.6358,-6.1095 -0.5307,-1.2813 -0.8499,-2.8254 -0.7093,-3.4313 0.1651,-0.7113 -2.5745,-2.1166 -7.7302,-3.9655 -9.7016,-3.4791 -14.9915,-8.0398 -17.6896,-15.2512 -1.6054,-4.2909 -1.645,-5.2293 -0.7277,-17.2542 1.0017,-13.1332 1.3406,-14.3511 6.5798,-23.6446 1.0425,-1.8493 3.8487,-5.3759 6.2361,-7.8368 l 4.3405,-4.4743 -2.9421,0.4968 c -5.6417,0.9525 -21.452,0.882 -25.2184,-0.1125 -2.0805,-0.5494 -5.8755,-1.3633 -8.4333,-1.8086 -7.2834,-1.2682 -17.8409,-8.8231 -18.8685,-13.5022 -0.281,-1.2789 -1.9769,-4.2766 -3.7689,-6.6615 -1.7919,-2.3849 -3.491,-5.3968 -3.7757,-6.6932 -0.7279,-3.314 0.01,-8.1876 1.5754,-10.4245 0.7302,-1.0426 1.3277,-2.5656 1.3277,-3.3844 0,-1.6724 11.2255,-14.7965 13.3448,-15.6018 1.6378,-0.6224 4.606,-4.2287 4.8503,-5.8932 0.096,-0.6545 2.3208,-3.3268 4.944,-5.9384 6.3124,-6.2846 7.2655,-7.3913 10.4881,-12.1779 2.7718,-4.1169 9.0435,-10.6437 10.2277,-10.6437 0.3546,0 0.4418,-0.5293 0.1936,-1.176 -0.2482,-0.6467 -0.047,-1.4256 0.4467,-1.7308 0.4938,-0.3052 0.8979,-1.1375 0.8979,-1.8497 0,-1.5262 5.5755,-11.0754 7.5298,-12.8964 0.7442,-0.6935 1.8408,-2.4459 2.4368,-3.8942 0.5959,-1.4482 2.1909,-3.6942 3.5442,-4.9908 1.3535,-1.2967 2.4713,-2.7596 2.4842,-3.251 0.013,-0.4915 1.1477,-2.3794 2.5219,-4.1956 1.3741,-1.8161 2.4984,-3.7472 2.4984,-4.2913 0,-0.544 2.0805,-2.9568 4.6234,-5.3618 2.5428,-2.4049 4.6233,-4.8911 4.6233,-5.5249 0,-0.6338 0.8618,-1.8418 1.915,-2.6844 1.0533,-0.8426 3.0392,-3.1316 4.4133,-5.0867 1.374,-1.9551 2.97,-3.5628 3.5465,-3.5726 1.5888,-0.027 7.6248,-5.7716 11.3257,-10.7787 1.8116,-2.4509 4.2133,-4.8058 5.3371,-5.2331 1.2577,-0.4781 2.0433,-1.4473 2.0433,-2.5206 0,-0.9591 0.5789,-2.8632 1.2864,-4.2315 0.9236,-1.786 1.0501,-2.9294 0.4482,-4.0539 -0.5331,-0.9961 -0.5558,-2.551 -0.062,-4.2715 0.8705,-3.0349 -0.895,-11.6031 -3.1048,-15.0683 -1.5312,-2.4013 -2.1504,-7.1436 -2.2623,-17.3267 -0.078,-7.11086 0.085,-7.85589 2.7082,-12.39897 1.5353,-2.65842 3.0649,-4.83356 3.3992,-4.83356 0.3343,0 0.5689,-1.04023 0.5213,-2.31168 -0.097,-2.59432 1.0639,-4.63935 2.226,-3.92115 0.4214,0.26047 0.6631,0.16171 0.5371,-0.21937 -0.3799,-1.1495 4.5569,-7.8242 8.7038,-11.7679 3.4007,-3.23404 4.8611,-5.70463 8.6087,-14.56377 0.2934,-0.69348 1.6331,-3.19376 2.9772,-5.5561 1.544,-2.71373 2.6434,-6.11827 2.9859,-9.24672 0.2982,-2.72335 1.2411,-6.6538 2.0952,-8.73432 0.8542,-2.08052 2.742,-6.99812 4.1951,-10.928 1.4531,-3.92981 2.9652,-7.90174 3.3602,-8.82639 3.0917,-7.2368 4.3681,-9.66707 5.0772,-9.66707 0.4511,0 1.057,-0.94306 1.3463,-2.09573 0.2893,-1.15264 0.8331,-1.90589 1.2085,-1.67388 0.3754,0.23202 0.9268,-0.69014 1.2253,-2.04925 0.2985,-1.3591 1.0858,-2.92183 1.7496,-3.47272 0.6638,-0.5509 1.2069,-1.53804 1.2069,-2.19366 0,-1.61301 3.1043,-5.88978 6.935,-9.55438 1.7338,-1.65857 3.1523,-3.46643 3.1523,-4.01746 0,-0.55105 0.3462,-1.00191 0.7693,-1.00191 0.423,0 1.6524,-0.78653 2.7319,-1.74787 1.8912,-1.68403 1.9385,-2.02939 1.2972,-9.45689 -0.3662,-4.23997 -1.2404,-11.01772 -1.9427,-15.06168 -0.7023,-4.04397 -1.0424,-7.73215 -0.7558,-8.19597 0.2867,-0.46383 0.098,-0.84333 -0.4187,-0.84333 -0.5541,0 -0.6607,-0.43118 -0.2597,-1.05076 0.374,-0.57792 0.6878,-4.26611 0.6972,-8.19597 0.029,-11.84528 5.339,-24.29772 15.9532,-37.40727 1.8716,-2.31169 4.4048,-5.52703 5.6294,-7.14521 2.5708,-3.39719 10.9718,-12.21236 11.6251,-12.19834 0.2426,0.005 0.9992,-0.4607 1.6812,-1.03534 10.5763,-8.90949 16.1401,-10.83703 30.2414,-10.47688 5.317,0.1358 10.9027,0.51408 12.4129,0.84062 3.414,0.73822 18.6465,-0.20614 23.7335,-1.47139 2.0805,-0.51747 7.1872,-1.27871 11.3483,-1.69164 10.8702,-1.07874 23.1549,-3.03706 25.9035,-4.12932 1.3015,-0.51721 5.3434,-0.94038 8.9819,-0.94038 3.6385,0 7.6648,-0.39894 8.9472,-0.88653 1.2825,-0.4876 6.1302,-0.89627 10.7726,-0.90816 4.6424,-0.0118 10.3306,-0.50554 12.6404,-1.09701 2.7216,-0.69689 5.0885,-0.81842 6.7249,-0.34529 1.3889,0.40155 4.2839,0.53148 6.4334,0.28875 2.1494,-0.24274 7.7265,0.13218 12.3935,0.83315 4.6669,0.70096 8.6993,1.27448 8.9608,1.27448 0.2615,0 0.226,0.40358 -0.079,0.89684 -0.3048,0.49325 -0.043,0.79473 0.5809,0.66994 0.6243,-0.12478 3.0054,0.61771 5.2913,1.64998 2.286,1.03228 5.032,2.09667 6.1024,2.36532 1.0704,0.26865 2.1665,0.84498 2.4358,1.28073 0.2693,0.43575 2.5354,1.69699 5.0358,2.80276 2.5003,1.10577 4.549,2.31502 4.5526,2.68721 0.01,0.88986 4.1177,2.77825 6.0454,2.77825 0.8324,0 1.5136,0.29721 1.5136,0.66048 0,2.13008 12.311,1.44299 34.8854,-1.94698 6.5477,-0.98325 12.1912,-1.25713 19.3341,-0.93828 13.5688,0.60569 28.0169,2.50303 31.1026,4.08439 3.1128,1.59523 11.419,4.02468 13.7602,4.02468 0.953,0 2.9752,1.07545 4.494,2.38991 4.6106,3.99057 13.6843,7.98611 17.784,7.83104 2.8273,-0.10694 4.0054,0.30014 5.5131,1.90505 1.0546,1.12259 4.0527,2.89122 6.6625,3.93031 2.6096,1.03909 5.491,2.3908 6.403,3.00383 0.9119,0.61301 2.4251,1.12036 3.3625,1.12743 1.4083,0.0106 1.4853,0.1544 0.4434,0.82775 -1.0691,0.69089 -1.0296,0.81683 0.2597,0.82774 0.8364,0.007 1.2869,0.39114 1.0011,0.85348 -0.6382,1.0328 0.6266,1.11344 1.7233,0.10988 1.0397,-0.9513 7.2362,-0.16458 6.6154,0.83989 -0.2608,0.42208 0.5933,0.76345 1.8981,0.7586 4.0117,-0.0149 6.0479,0.307 5.6825,0.89835 -0.5303,0.85805 1.3714,2.10108 5.0085,3.27364 1.801,0.58068 5.2056,2.52953 7.5654,4.33077 2.3599,1.80126 5.1393,3.49632 6.1763,3.76681 1.0371,0.2705 1.6885,0.81076 1.4476,1.20059 -0.2409,0.38982 0.3747,1.14376 1.3681,1.67542 1.4648,0.78388 1.6843,0.75213 1.1611,-0.16798 -0.5199,-0.91451 -0.4254,-0.93078 0.487,-0.0839 0.6227,0.57792 1.9223,1.05077 2.8881,1.05077 1.0595,0 4.8131,2.91675 9.4655,7.35535 4.2403,4.04546 10.4027,9.81416 13.6941,12.81935 3.2915,3.0052 6.5436,5.9856 7.2269,6.62315 0.6834,0.63752 1.0435,1.67779 0.8002,2.31167 -0.2458,0.64038 0.084,1.15253 0.7427,1.15253 0.6517,0 1.4548,0.43673 1.7847,0.9705 0.4096,0.66269 0.2253,0.7394 -0.5809,0.24187 -0.6493,-0.40075 -0.2349,0.45106 0.921,1.89289 1.1558,1.44184 2.6897,2.79139 3.4087,2.99904 0.7189,0.20762 1.9397,1.6616 2.7129,3.23104 0.773,1.56945 1.4142,2.55454 1.4247,2.18907 0.011,-0.36546 0.9435,0.20195 2.0733,1.26092 2.5113,2.35381 3.8771,5.76739 3.2567,8.13977 -0.384,1.46821 -0.087,1.77145 1.7362,1.77145 2.1359,0 2.9471,1.12005 1.4718,2.03186 -0.9107,0.56285 -0.1839,4.69304 0.8259,4.69304 0.4084,0 0.7426,0.56741 0.7426,1.26092 0,0.6935 0.5674,1.26092 1.2609,1.26092 0.7765,0 1.2609,0.78839 1.2609,2.05191 0,1.12856 0.3783,2.28571 0.8406,2.57146 0.4624,0.28574 0.8406,1.01878 0.8406,1.62898 0,1.27726 4.8939,9.86367 7.588,13.31335 1.0782,1.38054 1.6037,2.90247 1.2871,3.72756 -0.3499,0.91196 0.2304,2.05219 1.6773,3.29546 1.3281,1.14126 1.9614,2.30711 1.5844,2.91706 -0.3756,0.60772 -0.2749,0.79789 0.2504,0.47322 0.523,-0.3233 1.0995,0.72909 1.4253,2.60209 0.3008,1.72975 1.0929,4.27979 1.7602,5.66676 0.6673,1.38704 1.6151,4.14097 2.1063,6.1198 0.4911,1.97889 1.2063,3.40435 1.5893,3.16764 0.383,-0.2367 0.6963,0.50508 0.6963,1.6484 0,1.14332 0.3947,3.12234 0.8773,4.39787 0.4826,1.27553 1.1084,3.37491 1.3907,4.66522 0.2824,1.29038 0.8174,2.15813 1.1891,1.92837 0.6003,-0.37096 0.8304,1.00397 1.0083,6.02307 0.1531,4.32275 1.018,7.73303 1.8335,7.2291 0.5684,-0.35133 0.6455,-0.1484 0.2106,0.55496 -1.3132,2.125 -1.1326,5.97293 0.3083,6.56785 1.588,0.65564 2.228,8.6037 0.7659,9.51159 -0.4752,0.29507 -0.6003,0.9632 -0.2779,1.48478 0.3223,0.52158 0.911,0.74751 1.308,0.50208 1.6146,-0.99779 2.1765,6.20944 1.3108,16.81077 -0.1395,1.70759 0.3222,2.89583 1.43,3.68024 1.3099,0.92745 1.4095,1.30452 0.4995,1.89135 -0.9518,0.61396 -0.9482,0.85424 0.022,1.47961 0.6766,0.43614 0.884,1.19085 0.4983,1.81476 -0.99,1.60201 -1.2966,10.33177 -0.3826,10.89667 0.4375,0.2704 1.0347,3.1216 1.3271,6.3362 0.2924,3.2145 0.8803,6.5065 1.3065,7.3155 0.4261,0.8092 0.5948,1.4711 0.3749,1.4711 -0.2199,0 0.5234,2.7142 1.6517,6.0315 1.1283,3.3174 2.0514,6.938 2.0514,8.0459 0,1.1079 0.5675,2.5817 1.261,3.2752 1.4103,1.4104 1.725,3.2081 0.4203,2.4018 -0.4624,-0.2858 -0.8407,-0.1023 -0.8407,0.4075 0,0.51 0.6228,0.816 1.3839,0.6801 0.7611,-0.1358 1.5492,0.2258 1.7513,0.8038 0.202,0.5779 -0.263,1.0508 -1.0336,1.0508 -2.0692,0 -1.0432,1.9779 1.3148,2.5345 1.378,0.3253 1.6957,0.6864 0.9883,1.1236 -0.5732,0.3543 -1.0423,1.2147 -1.0423,1.9121 0,0.9152 0.5033,1.1083 1.8085,0.694 1.4136,-0.4487 1.6991,-0.2894 1.3081,0.7297 -0.2752,0.717 -0.048,1.4873 0.5033,1.7118 0.7459,0.3034 0.7338,0.4253 -0.047,0.4747 -0.578,0.036 -1.0509,0.6503 -1.0509,1.364 0,0.7365 0.5876,1.191 1.3583,1.0509 1.8148,-0.3301 4.9124,3.8382 4.2109,5.6663 -0.4689,1.222 -0.7502,1.2607 -2.0065,0.2757 -1.328,-1.0411 -1.3539,-1.0089 -0.2841,0.3537 0.6472,0.8245 1.5929,1.3586 2.1015,1.1869 1.4762,-0.4982 4.122,4.6111 4.0102,7.744 -0.095,2.6696 -0.02,2.7554 1.1113,1.2609 0.7496,-0.9906 1.2639,-1.2019 1.3454,-0.5527 0.176,1.403 0.3665,2.0373 1.1397,3.7953 0.3589,0.816 0.4507,2.2561 0.2037,3.2004 -0.3163,1.2095 0.09,1.9687 1.3763,2.5692 4.4094,2.0594 8.1665,11.8548 11.0823,28.893 0.6329,3.6987 1.7838,9.3729 2.5576,12.6092 1.5026,6.2852 1.8695,19.0835 0.8556,29.8418 -0.5912,6.2731 -2.5508,12.7787 -5.6048,18.6079 -0.8808,1.6811 -1.6015,4.0816 -1.6015,5.3342 0,1.2527 -0.7069,3.2817 -1.5709,4.509 -0.864,1.2272 -1.8241,3.0474 -2.1335,4.045 -0.3094,0.9975 -1.1156,2.0259 -1.7915,2.2853 -0.6759,0.2594 -1.2475,1.1454 -1.2702,1.969 -0.022,0.8236 -1.5357,3.0106 -3.3625,4.8599 -1.8267,1.8493 -3.5564,4.119 -3.844,5.0437 -0.802,2.5789 -6.0171,8.6545 -7.9574,9.2703 -0.9507,0.3017 -1.549,1.0169 -1.3294,1.5893 0.2197,0.5724 -0.6986,2.6757 -2.0407,4.674 -1.342,1.9982 -2.44,4.1437 -2.44,4.7676 0,0.6239 -0.7161,1.1344 -1.5912,1.1344 -0.8753,0 -1.8092,0.5674 -2.0753,1.2609 -0.266,0.6936 -1.0854,1.261 -1.8207,1.261 -0.7354,0 -1.108,0.3704 -0.8282,0.8232 0.2799,0.4528 0.081,1.6224 -0.4416,2.5993 -0.5229,0.9768 -1.0883,2.8651 -1.2568,4.1963 -0.3756,2.968 -2.7815,6.3219 -6.9093,9.6319 -1.7172,1.377 -4.3618,3.699 -5.8765,5.16 -2.3949,2.3097 -11.6877,6.1689 -14.8579,6.1705 -1.008,0 -11.5461,11.2822 -16.3351,17.4879 -2.9454,3.8166 -4.0372,5.8136 -7.213,13.1941 -1.7163,3.9884 -7.995,13.8701 -8.813,13.8701 -0.3146,0 -4.3367,3.6288 -8.9378,8.064 -4.6012,4.4351 -9.7843,8.793 -11.5181,9.6841 -1.7338,0.8911 -3.1584,1.8962 -3.166,2.2335 -0.01,0.3373 -2.6631,1.9325 -5.9014,3.5447 -3.2383,1.6123 -7.1094,3.9757 -8.6026,5.2519 -1.4932,1.2763 -3.1414,2.3214 -3.6627,2.3225 -0.5213,0 -1.4246,0.5763 -2.0072,1.2784 -1.5593,1.8788 -5.8005,3.6453 -9.8619,4.1075 -3.7519,0.4269 -5.3631,1.1456 -10.9873,4.9013 -3.418,2.2824 -5.574,5.0291 -4.6628,5.9403 0.2611,0.2611 0.1939,0.9295 -0.1494,1.4851 -0.3435,0.5556 -0.7831,3.5124 -0.977,6.5706 -0.194,3.0583 -0.8264,8.3976 -1.4056,11.8651 -0.9899,5.9274 -1.0413,14.0118 -0.1626,25.6124 0.2191,2.8934 0,5.4732 -0.5139,6.0944 -0.5008,0.6033 -0.5452,1.0771 -0.1011,1.0771 0.4629,0 0.5685,1.7491 0.2537,4.203 -0.2966,2.3117 -0.2288,4.2031 0.1507,4.2031 0.3794,0 0.6899,0.4006 0.6899,0.8903 0,0.4896 -0.3134,0.6965 -0.6964,0.4598 -0.383,-0.2367 -0.5224,1.7269 -0.3099,4.3636 0.2126,2.6367 0.712,4.9191 1.11,5.0719 0.3979,0.1529 0.3512,0.9735 -0.1037,1.8236 -0.572,1.0688 -0.5327,1.6437 0.1272,1.8637 0.706,0.2353 0.6965,0.8001 -0.036,2.1694 -0.5449,1.0182 -0.6489,1.8512 -0.2312,1.8512 0.9795,0 1.9791,5.9784 1.8895,11.3001 -0.065,3.877 0.016,4.0457 1.2177,2.5219 1.2711,-1.6122 1.2855,-1.6115 1.1194,0.048 -0.5171,5.1694 2.1705,20.5949 3.5884,20.5949 0.4022,0 0.7314,0.546 0.7314,1.2133 0,0.6673 0.798,1.7722 1.7734,2.4554 0.9754,0.6832 1.6058,1.7448 1.4011,2.3592 -0.444,1.332 2.3134,7.8645 4.5114,10.6877 0.8585,1.1025 1.5608,2.7102 1.5608,3.5725 0,0.8624 0.3783,1.5679 0.8406,1.5679 0.4624,0 0.8406,1.1348 0.8406,2.5218 0,1.387 0.3152,2.5219 0.7006,2.5219 0.3852,0 0.7347,0.4728 0.7766,1.0507 0.2631,3.6332 1.1034,6.5683 2.6883,9.3898 0.9955,1.7724 1.6949,4.2149 1.5543,5.4276 -0.2182,1.8811 -0.8731,2.359 -4.4588,3.2533 -12.2278,3.0497 -19.0595,3.8743 -33.2042,4.0081 -18.552,0.1754 -29.5969,1.6707 -37.4073,5.0643 -4.5253,1.9663 -11.6388,3.5791 -18.4102,4.1739 -5.3523,0.4701 -7.0641,0.9751 -8.8178,2.6013 -1.5664,1.4523 -3.1482,2.0179 -5.6441,2.0179 -2.195,0 -4.2523,0.6171 -5.6051,1.6812 -1.1756,0.9247 -2.3368,1.6813 -2.5805,1.6813 -0.2437,0 -1.5081,0.4363 -2.8096,0.9698 -1.3015,0.5333 -2.9235,1.0796 -3.6043,1.214 -0.6808,0.1343 -1.6683,0.8327 -2.1942,1.552 -0.5259,0.7193 -1.3411,1.3079 -1.8115,1.3079 -0.4703,0 -1.3226,0.5632 -1.8939,1.2516 -0.5714,0.6884 -1.3836,1.0386 -1.805,0.7782 -0.4214,-0.2605 -0.6622,-0.01 -0.5352,0.5688 0.127,0.5733 -0.9039,1.3096 -2.2909,1.6362 -1.387,0.3266 -4.35,1.3987 -6.5844,2.3825 -2.2344,0.9838 -4.5853,1.7888 -5.2243,1.7888 -0.6389,0 -1.5433,0.713 -2.0097,1.5845 -0.4664,0.8715 -1.709,1.8239 -2.7615,2.1164 -1.0524,0.2925 -3.0484,1.999 -4.4354,3.7923 -1.387,1.7933 -4.2241,4.4505 -6.3046,5.905 -9.4647,6.6171 -11.071,7.8945 -12.3159,9.7946 -0.73,1.1141 -1.628,2.0255 -1.9957,2.0255 -1.4333,0 -7.5464,4.5667 -7.9918,5.9701 -0.259,0.816 -2.4394,2.8509 -4.8452,4.5221 -8.3311,5.7869 -10.1758,7.2262 -14.863,11.5965 -2.5899,2.4149 -5.8951,5.0187 -7.3446,5.7864 -1.8417,0.9754 -2.7179,2.1148 -2.9088,3.7827 -0.2311,2.0186 -0.7018,2.4283 -3.0491,2.6537 -2.0776,0.1997 -3.0188,0.8339 -3.742,2.5218 -1.517,3.541 -9.9085,12.0571 -14.0772,14.2865 -4.848,2.5927 -14.453,5.1561 -19.4151,5.1816 -2.125,0.011 -5.0045,0.5888 -6.3988,1.2843 -1.3943,0.6956 -4.2781,1.5903 -6.4085,1.9884 -2.1303,0.3979 -4.7701,1.3111 -5.866,2.0293 -1.096,0.718 -3.6607,1.7417 -5.6994,2.2747 -4.5172,1.1811 -10.9684,4.1554 -12.113,5.5846 -0.4623,0.5774 -4.0133,1.8286 -7.8911,2.7805 -5.9574,1.4624 -9.5416,1.7174 -23.1168,1.6447 -8.8365,-0.047 -17.3112,-0.3809 -18.8328,-0.7414 z m 37.1275,-7.6647 c 4.2182,-0.9721 8.6152,-2.3765 9.7711,-3.1209 4.1792,-2.6916 8.0659,-4.4659 12.1889,-5.564 2.3116,-0.6157 5.527,-1.8926 7.1451,-2.8375 1.6182,-0.945 4.4515,-1.9941 6.2961,-2.3314 1.8447,-0.3374 4.8709,-1.3025 6.7249,-2.1447 1.8996,-0.863 5.351,-1.5395 7.9072,-1.5498 4.206,-0.017 4.8306,-0.294 8.5803,-3.8013 2.2242,-2.0806 4.7223,-3.7866 5.5511,-3.7913 0.8289,-0.01 6.1379,-4.5441 11.7979,-10.0874 5.66,-5.5433 10.8092,-10.0787 11.4428,-10.0787 0.6337,0 2.6226,-1.1304 4.42,-2.5119 4.3389,-3.335 4.5319,-3.5085 7.5855,-6.8189 4.1445,-4.4931 11.0906,-10.2429 14.9275,-12.3567 1.9299,-1.0631 3.8742,-2.7425 4.3208,-3.7319 0.4465,-0.9896 1.9467,-2.4171 3.3336,-3.1724 1.3871,-0.7553 3.6567,-2.8983 5.0437,-4.7623 2.3979,-3.2225 5.9865,-5.3142 9.1175,-5.3142 0.788,0 3.8136,-2.175 6.7236,-4.8335 2.9101,-2.6584 6.3996,-5.4847 7.7545,-6.2805 1.3549,-0.7958 3.0309,-1.8131 3.7243,-2.2605 0.6936,-0.4474 3.7823,-1.9557 6.8641,-3.3519 3.0818,-1.3961 5.8492,-2.9366 6.15,-3.4232 0.6579,-1.0645 10.003,-5.455 13.2694,-6.2343 1.2793,-0.3052 4.4947,-1.951 7.1453,-3.6575 9.257,-5.9597 10.1563,-6.2723 19.9502,-6.9344 9.2009,-0.6221 13.001,-1.6017 21.0153,-5.4178 4.6448,-2.2116 16.1904,-3.2457 38.2479,-3.4254 10.208,-0.083 15.7991,-0.5367 21.7333,-1.763 1.7024,-0.3517 1.9184,-0.7852 1.5464,-3.1029 -0.6894,-4.2945 -1.0194,-5.394 -1.9815,-6.6021 -0.4975,-0.6245 -1.3894,-2.6486 -1.9821,-4.498 -0.5926,-1.8493 -1.5458,-4.119 -2.1181,-5.0437 -0.5723,-0.9246 -0.9265,-2.345 -0.787,-3.1563 0.1395,-0.8113 -0.091,-1.2618 -0.5132,-1.0011 -0.4218,0.2606 -0.7668,0.1446 -0.7668,-0.2578 0,-0.4025 -0.7759,-1.5645 -1.7241,-2.5823 -0.9483,-1.0179 -1.4982,-2.2162 -1.222,-2.663 0.276,-0.4468 0.078,-1.6036 -0.4391,-2.5708 -0.5175,-0.9671 -1.5002,-3.9065 -2.1838,-6.5321 -0.6834,-2.6255 -1.6014,-5.1331 -2.0399,-5.5723 -0.4385,-0.4392 -0.7973,-2.2137 -0.7973,-3.9433 0,-1.7296 -0.3285,-3.3478 -0.7301,-3.596 -0.4017,-0.2482 -0.9848,-2.0434 -1.296,-3.9893 -0.3112,-1.9459 -1.1374,-4.7428 -1.8363,-6.2154 -0.6987,-1.4726 -1.609,-6.0358 -2.0228,-10.1406 -0.4138,-4.1048 -1.0041,-8.6926 -1.3117,-10.1951 -0.3077,-1.5026 -0.2327,-2.733 0.1665,-2.7341 1.2272,-0.01 1.3688,-15.2438 0.1626,-17.4975 -0.9227,-1.7243 -0.8629,-2.1566 0.4295,-3.1016 1.2585,-0.9203 1.3749,-1.6211 0.7185,-4.3287 -0.4307,-1.7769 -0.825,-5.122 -0.8761,-7.4337 -0.051,-2.3117 -0.5363,-5.0413 -1.0782,-6.0658 -0.656,-1.2401 -0.7091,-2.2236 -0.1589,-2.9421 0.4546,-0.5937 0.9239,-2.9647 1.0429,-5.2688 0.119,-2.3042 0.574,-4.8576 1.011,-5.6742 0.4995,-0.9333 0.4991,-1.4847 0,-1.4847 -0.9831,0 -0.7646,-1.5179 0.567,-3.9377 1.3861,-2.5191 1.3775,-2.5357 -1.8602,-3.6042 -1.7982,-0.5935 -5.1944,-0.7367 -9.0915,-0.3836 -6.2209,0.5637 -9.3669,-0.2297 -13.1559,-3.3177 -0.6381,-0.5201 -3.114,-2.0806 -5.5019,-3.4676 -9.0689,-5.2677 -10.0857,-5.9372 -11.9647,-7.878 -1.0616,-1.0966 -2.1817,-3.3662 -2.4892,-5.0437 -0.4217,-2.3014 -2.0567,-4.5299 -6.662,-9.0806 -3.3568,-3.3168 -7.261,-6.6292 -8.6759,-7.361 -1.9322,-0.9991 -2.7883,-2.2182 -3.4392,-4.8972 -0.4766,-1.9619 -1.2798,-4.7019 -1.7847,-6.0889 -3.3091,-9.0885 -3.904,-14.9114 -1.9214,-18.8082 0.5585,-1.0978 0.8241,-2.4945 0.5903,-3.1039 -0.4737,-1.2345 -6.7282,3.5156 -13.3568,10.1442 -2.1321,2.132 -4.6964,4.2326 -5.6986,4.6678 -1.0021,0.4353 -2.5643,1.2652 -3.4714,1.8443 -4.461,2.8473 -7.7934,4.6516 -9.6989,5.2511 -2.2113,0.6957 -5.619,3.031 -8.6808,5.9487 -2.3726,2.261 -8.2764,4.5623 -11.7211,4.5689 -1.4932,0 -3.7985,0.5702 -5.1228,1.2608 -1.3242,0.6907 -2.8809,1.2558 -3.4592,1.2558 -0.5783,0 -2.0159,0.7587 -3.1948,1.6859 -1.1788,0.9272 -2.27,1.3113 -2.425,0.8534 -0.182,-0.5376 -1.3665,-0.4991 -3.3446,0.1089 -2.7674,0.8507 -3.6025,0.6786 -8.6579,-1.7843 -4.7672,-2.3224 -9.2389,-6.3012 -9.3164,-8.2897 -0.012,-0.308 -0.7659,-1.6741 -1.6752,-3.0358 -0.9095,-1.3617 -1.5302,-3.253 -1.3794,-4.203 0.4005,-2.5244 6.0384,-8.0319 8.222,-8.0319 2.5963,0 4.6002,0.8738 4.049,1.7657 -0.2546,0.4119 0.5987,1.2062 1.8962,1.765 2.5752,1.1092 4.896,3.1313 5.1129,4.4551 0.076,0.4623 2.1443,1.0654 4.5969,1.3402 2.4527,0.2746 5.2762,0.9367 6.2747,1.471 2.1895,1.1718 10.332,1.3016 10.332,0.1647 0,-0.4438 1.507,-1.2584 3.3489,-1.8103 1.8419,-0.5518 3.9811,-1.7018 4.7537,-2.5555 0.7726,-0.8538 1.8864,-1.5523 2.4753,-1.5523 0.5888,0 1.5704,-0.4883 2.1814,-1.0851 0.611,-0.5969 1.9612,-1.6722 3.0005,-2.3896 1.0393,-0.7175 4.272,-4.0117 7.1838,-7.3205 3.0614,-3.4787 7.7595,-7.5834 11.1398,-9.7325 3.2151,-2.0442 6.6518,-4.5139 7.6371,-5.4883 0.9852,-0.9744 4.1647,-2.9213 7.0654,-4.3264 2.9008,-1.4051 6.4448,-3.4311 7.8757,-4.5021 1.4309,-1.071 3.4249,-2.197 4.4313,-2.5022 1.0063,-0.3053 4.0325,-2.9211 6.7249,-5.8129 4.9956,-5.3657 7.7704,-11.4899 9.2006,-20.3066 0.4594,-2.8321 2.8302,-9.7031 5.8011,-16.8123 0.832,-1.991 0.9801,-2.7542 1.7174,-8.8519 0.4516,-3.7353 0.295,-4.8704 -0.7974,-5.777 -1.7146,-1.423 -1.758,-6.0663 -0.1076,-11.5066 1.7531,-5.7791 1.629,-11.7633 -0.3009,-14.5044 -0.8641,-1.2272 -1.8308,-2.9878 -2.1485,-3.9126 -0.3175,-0.9246 -2.6264,-3.3834 -5.1308,-5.4639 -2.5044,-2.0805 -4.5638,-4.165 -4.5765,-4.632 -0.013,-0.467 -1.0567,-1.9638 -2.32,-3.3263 -1.2633,-1.3624 -2.3036,-2.8716 -2.3116,-3.3539 -0.029,-1.6726 -2.3249,-6.3407 -3.1194,-6.3407 -0.4393,0 -1.3661,-0.5674 -2.0596,-1.2609 -0.8861,-0.8861 -3.3046,-1.3049 -8.1359,-1.4088 -14.6246,-0.3146 -15.1579,-0.2601 -20.0923,2.0526 -2.6461,1.2403 -5.7678,2.4952 -6.9371,2.7886 -1.1692,0.2935 -3.5289,1.2489 -5.2437,2.1232 -1.7149,0.8743 -4.353,1.5896 -5.8626,1.5896 -5.1985,0 -15.3934,12.3516 -15.3934,18.6499 0,0.8932 -0.3739,1.3929 -0.8309,1.1104 -0.4571,-0.2824 -0.637,-0.01 -0.3999,0.6101 0.2371,0.6179 -0.1935,4.1366 -0.957,7.8193 -0.7635,3.6826 -1.4347,7.5107 -1.4916,8.5068 -0.057,0.9961 -0.3897,1.6341 -0.7397,1.4178 -0.3501,-0.2163 -0.8857,0.2927 -1.1904,1.131 -1.1602,3.1922 -5.863,8.2197 -11.7865,12.6003 -3.3825,2.5015 -6.747,5.4592 -7.4765,6.5727 -1.7391,2.6542 -3.5227,8.6825 -4.5906,15.516 -1.2285,7.8612 -1.2907,7.9814 -5.5022,10.6435 -2.0999,1.3273 -4.5794,3.6454 -5.5101,5.1514 -0.9308,1.506 -2.0265,2.7382 -2.4348,2.7382 -1.4698,0 -2.8388,3.8915 -3.3887,9.6327 -0.4463,4.6593 -0.9243,6.0916 -2.3491,7.0375 -0.9838,0.6533 -1.7887,1.7252 -1.7887,2.3821 0,0.6569 -1.6789,2.9892 -3.7308,5.1829 -3.0506,3.2613 -4.0651,5.2088 -5.5646,10.6818 -2.8288,10.3243 -3.353,15.6188 -1.6059,16.2203 0.4476,0.154 0.8139,1.1187 0.8139,2.1435 0,1.0249 0.4057,2.2691 0.9016,2.765 0.5102,0.5101 1.1096,6.2176 1.3808,13.1469 0.4033,10.3067 0.2605,12.7059 -0.9016,15.155 -0.7594,1.6004 -1.3808,4.1054 -1.3808,5.5668 0,2.7721 -3.1381,10.0688 -5.6735,13.1921 -1.2501,1.5398 -7.6871,4.7416 -17.2331,8.5719 -1.2715,0.5102 -2.3118,1.295 -2.3118,1.7441 0,1.6856 -6.7743,10.9881 -8.0018,10.9881 -0.306,0 -2.5489,1.7022 -4.9842,3.7828 -2.5548,2.1825 -5.2784,3.7854 -6.4386,3.7891 -3.1707,0.01 -12.174,2.9961 -14.9117,4.9455 -1.3694,0.9752 -3.1339,1.773 -3.9211,1.773 -0.8942,0 -1.2586,0.45 -0.9709,1.1995 0.2531,0.6596 -0.062,1.6329 -0.7005,2.1627 -0.6383,0.5298 -2.1737,3.6783 -3.412,6.9965 -3.0901,8.2814 -3.8638,9.9743 -5.4464,11.9175 -0.7531,0.9247 -2.0494,3.5726 -2.8808,5.8843 -0.8314,2.3117 -1.8402,4.5624 -2.2417,5.0017 -0.4015,0.4392 -0.7301,1.4052 -0.7301,2.1468 0,0.7415 -1.2986,2.6068 -2.8859,4.1453 -1.5872,1.5384 -3.3696,3.9768 -3.9608,5.4187 -0.5913,1.4419 -1.9511,3.3193 -3.0219,4.1722 -1.0708,0.8527 -2.7429,3.1108 -3.7158,5.0178 -2.5631,5.0243 -4.9576,8.0313 -7.8388,9.8443 -1.3938,0.8771 -3.5427,2.4605 -4.7753,3.5189 -1.2326,1.0584 -3.124,2.6766 -4.2031,3.596 -2.6404,2.2498 -10.3752,6.9103 -12.6852,7.6435 -1.0251,0.3254 -3.1928,1.4451 -4.8171,2.4882 -2.5099,1.612 -6.1779,3.0686 -10.7288,4.2606 -0.6886,0.1804 -1.0508,1.9603 -1.0508,5.1643 0,3.0239 -0.7215,6.802 -1.8914,9.9036 -1.742,4.6185 -1.8887,6.375 -1.8572,22.247 0.025,12.4609 0.335,17.7773 1.1209,19.1998 0.5977,1.082 1.2214,3.5408 1.386,5.464 0.5682,6.6405 2.1494,11.7213 4.7934,15.4031 2.4885,3.4652 2.6919,4.3063 3.2756,13.547 0.5393,8.5374 0.7531,16.9383 0.6251,24.5631 -0.019,1.1559 -0.3756,2.513 -0.7914,3.016 -0.416,0.5029 -0.8051,2.3943 -0.8647,4.203 -0.159,4.8208 -1.8272,12.9557 -2.6568,12.9557 -0.3943,0 -0.4831,0.3783 -0.1973,0.8406 0.2857,0.4624 0.1716,0.8407 -0.2536,0.8407 -0.4253,0 -0.997,1.8899 -1.2706,4.1999 -0.4619,3.8996 -0.3049,4.3977 2.1947,6.967 1.4805,1.5218 3.5512,3.4806 4.6014,4.3528 4.7502,3.945 26.8703,5.0765 40.0171,2.0471 z m 153.1468,-365.6311 c -2.8179,-0.8322 -6.2223,-4.1328 -5.7437,-5.5686 0.1766,-0.5297 -0.4155,-1.1968 -1.3157,-1.4825 -1.8656,-0.5921 -2.8174,-3.259 -1.9711,-5.5232 0.8636,-2.3107 9.7741,-9.785 12.9311,-10.8469 1.5251,-0.5131 4.0947,-2.5243 5.7099,-4.4694 2.5729,-3.0981 2.9512,-4.1509 3.0518,-8.4911 0.073,-3.1727 0.5288,-5.2168 1.2661,-5.6838 1.8247,-1.156 6.8048,-0.8642 9.5575,0.5598 4.5229,2.3398 5.9162,4.4571 5.5895,8.4934 -0.1622,2.0028 -0.635,3.6415 -1.0507,3.6415 -0.4159,0 -0.756,0.5674 -0.756,1.2608 0,1.4428 -0.7256,1.5738 -2.4999,0.4517 -0.6814,-0.4309 -1.2489,-1.6213 -1.261,-2.6453 -0.039,-3.2952 -1.9821,-2.6478 -3.7587,1.2522 -0.95,2.0853 -1.7272,4.1904 -1.7272,4.6781 0,0.4877 -0.3782,0.8867 -0.8406,0.8867 -0.4624,0 -0.8406,0.5675 -0.8406,1.261 0,0.6935 -0.3653,1.2609 -0.8117,1.2609 -0.4463,0 -1.9696,1.132 -3.3849,2.5155 -1.5918,1.556 -3.8473,2.7192 -5.9133,3.0496 -3.2898,0.526 -3.34,0.5881 -3.34,4.1344 v 3.6003 l 5.2539,-1.945 c 2.8896,-1.0698 8.6557,-3.0438 12.8135,-4.3867 6.6311,-2.1417 7.8856,-2.8689 10.2131,-5.9204 3.6951,-4.8446 5.1313,-13.0374 3.4255,-19.5412 l -1.2126,-4.6234 -5.3694,-0.6487 c -6.8237,-0.8245 -8.2448,-1.2957 -6.7307,-2.2315 0.6893,-0.4259 -0.9705,-0.9114 -4.3557,-1.2739 -7.6394,-0.8181 -8.5943,-1.7035 -8.4838,-7.8663 0.049,-2.7527 0.6019,-8.7397 1.2279,-13.3045 1.0319,-7.5251 1.4708,-8.7758 4.7034,-13.4026 3.1661,-4.5318 6.4644,-7.3158 14.1065,-11.907 0.9506,-0.5711 1.4314,-1.044 1.0684,-1.0508 -0.3631,-0.01 -0.2785,-0.7254 0.1879,-1.5969 1.4372,-2.6854 4.6327,-2.8819 8.1418,-0.5005 1.7244,1.1702 4.1087,2.3521 5.2984,2.6265 8.8071,2.0308 13.2195,4.5934 21.5701,12.5275 4.5164,4.2911 5.9646,14.424 3.2149,22.494 -0.7345,2.1556 -1.1708,4.398 -0.9695,4.9833 0.2013,0.5853 -0.3123,3.0501 -1.1412,5.4773 -0.8288,2.4273 -1.3125,4.4132 -1.0748,4.4132 0.2377,0 -0.3758,1.1348 -1.3634,2.5219 -2.1528,3.0232 -4.5375,3.2351 -6.291,0.559 -1.1667,-1.7806 -1.1292,-2.6195 0.4036,-9.0366 0.9293,-3.8906 2.0667,-8.4417 2.5276,-10.1134 0.4609,-1.6719 0.8379,-5.7251 0.8379,-9.0071 0,-5.3341 -0.2006,-6.0725 -1.8913,-6.9588 -1.0403,-0.5453 -3.311,-2.2609 -5.0461,-3.8124 -1.7351,-1.5514 -3.721,-2.8208 -4.4133,-2.8208 -0.6921,0 -1.2584,-0.3528 -1.2584,-0.784 0,-1.4463 -3.732,-2.0936 -10.49,-1.8192 -7.0953,0.288 -7.4298,0.4385 -14.6632,6.5949 -3.8105,3.2433 -5.2476,7.5083 -5.1798,15.3727 0.072,8.4351 0.05,8.3713 2.943,8.4152 3.3697,0.051 12.5461,3.1913 17.1047,5.8532 4.3469,2.5383 5.2568,5.1824 5.4071,15.712 0.06,4.2286 -2.6409,16.223 -3.6535,16.223 -0.3933,0 -0.7151,0.4027 -0.7151,0.8949 0,0.4922 -1.1348,1.8498 -2.5218,3.0169 -1.387,1.1671 -2.5218,2.6264 -2.5218,3.2429 0,0.6166 -1.4186,1.5617 -3.1524,2.1003 -1.7337,0.5386 -4.6653,1.6566 -6.5147,2.4845 -1.8493,0.8279 -4.9702,1.7737 -6.935,2.1019 -1.965,0.3283 -3.5727,0.9418 -3.5727,1.3635 0,0.4217 -0.7753,0.7667 -1.723,0.7667 -0.9475,0 -2.7444,0.5196 -3.9929,1.1545 -3.536,1.7983 -5.4301,2.1061 -8.1029,1.3168 z m -5.5153,-8.7758 c 0,-0.6936 -0.3663,-1.261 -0.8142,-1.261 -0.4478,0 -0.5965,0.5674 -0.3304,1.261 0.2662,0.6935 0.6325,1.2609 0.8143,1.2609 0.1817,0 0.3303,-0.5674 0.3303,-1.2609 z m -35.726,312.2876 c 0.2857,-0.4624 0.1189,-0.8407 -0.3707,-0.8407 -0.4896,0 -0.8902,0.3783 -0.8902,0.8407 0,0.4623 0.1668,0.8406 0.3707,0.8406 0.2039,0 0.6044,-0.3783 0.8902,-0.8406 z m -267.4666,-80.0281 c 5.8813,-1.9143 8.9948,-3.432 10.7779,-5.2539 l 2.5076,-2.5621 14.8688,-0.063 c 17.2508,-0.073 19.0073,-0.548 18.1882,-4.914 -0.438,-2.3346 -0.09,-3.2769 2.1499,-5.8285 1.4904,-1.6975 4.0732,-3.4633 5.8395,-3.9925 1.7419,-0.5219 4.3342,-2.0397 5.7607,-3.3729 1.6636,-1.5547 3.4965,-2.4239 5.1114,-2.4239 1.3848,0 2.7611,-0.3935 3.0583,-0.8744 1.345,-2.1763 16.8175,1.0386 24.8949,5.1727 3.5427,1.8133 5.919,2.4266 9.4021,2.4266 6.2737,0 8.7147,-1.0812 10.3947,-4.6043 1.4359,-3.0109 1.8368,-3.2534 4.976,-3.0095 0.9756,0.076 2.9216,-0.8281 4.3245,-2.0085 1.4028,-1.1804 2.9284,-2.1463 3.3901,-2.1463 0.4618,0 1.0492,-0.5465 1.3056,-1.2145 0.2563,-0.668 1.7434,-1.4542 3.3046,-1.7471 2.2145,-0.4154 4.0854,-1.9994 8.5098,-7.2048 3.1192,-3.6698 7.063,-7.3866 8.7641,-8.2594 3.0816,-1.5814 7.4445,-7.6619 9.6058,-13.388 0.5504,-1.4582 1.266,-2.6513 1.5903,-2.6513 0.3242,0 0.8317,-1.1027 1.1277,-2.4506 0.2961,-1.3478 1.4605,-3.5229 2.5876,-4.8335 1.1272,-1.3106 2.0499,-2.8848 2.0505,-3.4983 0,-0.6135 1.514,-3.2284 3.3634,-5.811 2.0294,-2.8341 3.3624,-5.6411 3.3624,-7.0806 0,-1.3117 0.4007,-2.385 0.8903,-2.385 0.4896,0 0.6722,-0.3528 0.4057,-0.7839 -2.1816,-3.5299 14.361,-17.2694 21.772,-18.0829 0.9604,-0.1054 2.6881,-0.7005 3.8396,-1.3223 1.1515,-0.6218 3.2284,-1.2494 4.6154,-1.3946 3.2931,-0.3448 6.3046,-1.948 6.3046,-3.3564 0,-0.6154 0.3711,-1.1189 0.8247,-1.1189 0.4534,0 1.0558,-0.9214 1.3384,-2.0476 0.2827,-1.1261 2.6541,-4.0825 5.2699,-6.5697 3.7406,-3.5567 6.0165,-4.9337 10.6613,-6.4498 7.0637,-2.306 9.7793,-4.3177 10.0238,-7.4262 0.1,-1.2708 0.6612,-3.2064 1.2472,-4.3013 0.5859,-1.0949 1.1838,-4.6872 1.3285,-7.9829 0.1448,-3.2957 0.5297,-7.3803 0.8554,-9.0768 0.4515,-2.3518 -0.056,-5.0874 -2.1336,-11.5167 -2.4679,-7.6349 -2.6905,-9.1666 -2.3543,-16.1983 0.2371,-4.9598 0.7326,-7.8864 1.371,-8.0993 0.5498,-0.1832 0.7685,-0.7072 0.486,-1.1642 -0.2825,-0.4571 0.2933,-1.6899 1.2795,-2.7397 0.9861,-1.0498 1.5809,-2.4616 1.3215,-3.1374 -0.4632,-1.2072 0.3103,-2.3838 8.0888,-12.3028 3.4339,-4.379 3.9241,-5.5331 4.2472,-9.9988 0.2365,-3.2703 0.9417,-5.7933 2.0023,-7.1632 0.9003,-1.1632 3.2247,-4.2055 5.1652,-6.7606 1.9406,-2.5552 4.8722,-5.4764 6.5148,-6.4916 2.3226,-1.4354 2.9866,-2.3936 2.9866,-4.3097 0,-3.4195 2.8836,-13.4886 5.1793,-18.0854 1.9435,-3.8915 3.7443,-5.6906 13.6317,-13.6193 3.0616,-2.4552 5.5667,-4.9426 5.5667,-5.5276 0,-0.585 0.9457,-1.952 2.1016,-3.0379 1.1558,-1.0859 2.1015,-2.6057 2.1015,-3.3774 0,-0.7717 0.7825,-3.6374 1.739,-6.3682 1.1338,-3.2371 1.6068,-6.2241 1.3591,-8.5825 -0.5059,-4.8175 1.4463,-9.7153 6.4303,-16.1334 3.1437,-4.0481 5.0777,-5.6491 8.8083,-7.2914 2.6291,-1.1574 7.2389,-3.2763 10.2441,-4.7087 3.0052,-1.4324 7.1662,-2.7472 9.2468,-2.9217 2.0805,-0.1746 6.66,-1.4124 10.1767,-2.7509 6.2219,-2.3679 6.6561,-2.4159 16.1231,-1.7806 5.9449,0.399 10.2511,1.0861 11.0713,1.7668 2.2607,1.8763 5.9154,7.8319 6.9822,11.3783 1.0095,3.3557 4.4789,7.4981 9.3867,11.2076 1.427,1.0784 2.3438,2.3663 2.0375,2.8618 -0.3134,0.507 -0.1647,0.6587 0.3398,0.3469 0.4932,-0.3049 2.1565,1.0552 3.6963,3.0224 1.5397,1.9671 3.0647,3.6956 3.389,3.841 0.3242,0.1455 0.3871,0.7919 0.1398,1.4365 -0.2474,0.6445 -0.029,2.4462 0.4848,4.0037 1.4461,4.3817 1.2346,14.8306 -0.3522,17.398 -0.2787,0.4511 -0.1303,1.5237 0.3299,2.3836 1.423,2.6588 1.3582,8.94 -0.1936,18.7713 -0.1204,0.7625 -0.6639,1.9226 -1.2079,2.578 -1.1581,1.3954 -4.9738,12.1953 -6.0244,17.0511 -2.4223,11.1959 -5.4748,21.1963 -6.8737,22.5191 -0.8748,0.8271 -1.5904,2.0247 -1.5904,2.6614 0,1.0451 -5.0719,5.6101 -7.1452,6.431 -2.0774,0.8225 -10.4566,5.9822 -11.2316,6.916 -0.5765,0.6946 -0.5895,2.2432 -0.039,4.6916 0.5752,2.5599 0.5292,4.5393 -0.1535,6.6079 -1.1784,3.5707 -0.4815,11.7605 1.1386,13.3806 1.2554,1.2555 1.7741,0.8157 10.3595,-8.7853 2.5223,-2.8207 5.8739,-5.3662 9.2606,-7.0335 4.7387,-2.3328 6.505,-2.6928 16.4802,-3.3581 16.7565,-1.1178 25.0859,-3.7049 29.158,-9.0568 1.2041,-1.5825 4.2209,-5.0604 6.7041,-7.7286 l 4.5149,-4.8513 2.6716,1.7513 c 4.071,2.6686 3.9219,5.7706 -0.5107,10.6238 -1.9585,2.1445 -4.4265,4.2143 -5.4844,4.5996 -1.0579,0.3853 -1.9235,1.0566 -1.9235,1.4918 0,0.4353 -0.8511,1.1681 -1.8914,1.6285 -1.0402,0.4605 -3.9719,2.1518 -6.5147,3.7585 -2.5429,1.6068 -5.6055,2.9229 -6.8059,2.9248 -1.2004,0 -3.2924,0.5571 -4.6488,1.2338 -1.5912,0.7938 -6.6327,1.433 -14.2094,1.8015 -11.1411,0.542 -11.9985,0.711 -16.7233,3.2977 -3.7244,2.039 -5.4648,3.6325 -6.9022,6.3201 -1.0572,1.9765 -3.6818,5.142 -5.8324,7.0344 l -3.9102,3.4408 7.4746,7.824 7.4746,7.824 2.1958,-2.4644 c 1.2077,-1.3555 2.8495,-3.462 3.6483,-4.6812 0.7989,-1.2192 4.0806,-4.1283 7.2929,-6.4647 7.0336,-5.1158 10.1863,-5.4271 10.6104,-1.0476 0.2058,2.1249 -0.1649,2.9076 -1.7919,3.7828 -2.7294,1.468 -10.6564,8.4201 -10.6564,9.3457 0,0.4022 -1.7968,2.3593 -3.9929,4.3491 l -3.9929,3.6176 1.6812,1.8887 c 1.3809,1.5513 6.059,4.1785 7.4405,4.1785 0.1921,0 0.5425,-0.7391 0.7788,-1.6425 0.2362,-0.9035 1.6708,-2.1491 3.1878,-2.7681 2.2621,-0.923 2.9208,-1.7995 3.6614,-4.8722 0.8516,-3.533 1.083,-3.7615 4.0554,-4.0076 2.6677,-0.2207 3.1523,-0.01 3.1523,1.4011 0,0.914 0.3902,1.792 0.8671,1.9509 1.2141,0.4047 -0.6793,5.8111 -2.5973,7.4166 -1.9794,1.6569 -2.1766,3.2588 -0.761,6.1846 1.0804,2.2331 1.417,2.3668 4.7936,1.904 2.1802,-0.2988 4.9597,-0.04 6.955,0.6473 1.8279,0.6298 3.1529,0.869 2.9443,0.5315 -0.2086,-0.3375 0.164,-1.3313 0.828,-2.2085 0.664,-0.8772 1.2193,-2.2569 1.234,-3.066 0.015,-0.8091 0.3646,-1.4711 0.7775,-1.4711 0.4128,0 3.2989,-2.4259 6.4134,-5.3908 4.0343,-3.8407 6.5379,-5.5522 8.7062,-5.9519 1.6739,-0.3085 5.6842,-1.6654 8.9118,-3.0152 3.2276,-1.3499 6.2538,-2.4561 6.7249,-2.4582 0.4711,0 2.0226,-1.097 3.4479,-2.433 1.4253,-1.336 4.2623,-3.2689 6.3046,-4.2952 2.0423,-1.0263 4.848,-2.7039 6.2351,-3.7279 1.387,-1.024 3.7557,-2.3991 5.2637,-3.0557 1.508,-0.6566 2.9427,-1.8267 3.1881,-2.6002 0.4087,-1.2871 2.9193,-3.6945 10.2132,-9.7928 1.4814,-1.2385 2.7108,-2.5795 2.732,-2.9799 0.021,-0.4004 1.2854,-2.4809 2.8095,-4.6233 1.5239,-2.1425 3.51,-5.3981 4.4131,-7.2348 2.0447,-4.1576 2.6117,-4.935 6.2659,-8.5925 1.9088,-1.9106 2.573,-3.088 1.8912,-3.3522 -1.837,-0.7121 -1.1572,-4.2645 1.1658,-6.0918 1.2191,-0.9589 3.1249,-3.5397 4.2351,-5.7351 1.1102,-2.1954 3.2244,-4.9374 4.6981,-6.0932 3.1497,-2.4702 12.707,-6.4506 18.4418,-7.6805 2.2196,-0.476 4.5079,-1.4962 5.0851,-2.2671 0.5772,-0.7709 2.5626,-2.5071 4.4118,-3.8582 4.6598,-3.4046 6.4833,-5.3999 5.8585,-6.4107 -0.2925,-0.4734 0.2556,-2.3715 1.2181,-4.2181 0.9624,-1.8466 1.7499,-4.4535 1.7499,-5.7933 0,-1.3397 0.5675,-3.0033 1.2609,-3.6968 0.6935,-0.6935 1.2712,-1.5717 1.2836,-1.9515 0.055,-1.6646 5.163,-6.6422 10.5057,-10.2365 3.7473,-2.5209 6.625,-5.2437 8.1243,-7.6865 1.277,-2.0805 3.5603,-5.7865 5.0742,-8.2355 1.5138,-2.449 3.3199,-5.4435 4.0134,-6.6543 0.6935,-1.2109 1.9144,-2.8867 2.713,-3.7242 0.7986,-0.8374 1.2306,-2.0993 0.9601,-2.8043 -0.4451,-1.1598 0.4876,-4.1872 3.3073,-10.7351 0.5475,-1.2714 1.1869,-2.3123 1.4208,-2.3129 0.2339,0 0.5349,-1.5954 0.669,-3.5438 0.1341,-1.9485 0.6304,-3.7815 1.1028,-4.0735 1.203,-0.7435 0.3221,-16.3342 -1.1607,-20.542 -0.7167,-2.0343 -0.9397,-4.2515 -0.5642,-5.613 0.3712,-1.346 0.2096,-3.0425 -0.4018,-4.2211 -0.5756,-1.1096 -0.8995,-4.0742 -0.7411,-6.786 0.1546,-2.6485 -0.065,-4.8156 -0.4876,-4.8156 -0.423,0 -1.1887,-1.2042 -1.7018,-2.6761 -0.7195,-2.064 -0.6902,-2.8302 0.1279,-3.3496 0.8406,-0.5335 0.8426,-0.6761 0.01,-0.6863 -0.578,-0.01 -1.0508,-0.5487 -1.0508,-1.2037 0,-0.655 -0.4649,-1.3459 -1.0331,-1.5352 -0.7568,-0.2523 -0.6393,-0.9451 0.4397,-2.5919 1.3737,-2.0965 1.2415,-2.6417 -0.5606,-2.3128 -0.4034,0.074 -0.5145,-0.4368 -0.2468,-1.1344 0.2677,-0.6976 0.1536,-1.4742 -0.2536,-1.7259 -0.4071,-0.2516 -0.9142,0.2091 -1.1267,1.0238 -0.2463,0.9444 -0.4217,0.6615 -0.4839,-0.7807 -0.053,-1.2441 -0.518,-2.5219 -1.032,-2.8396 -0.514,-0.3176 -1.8107,-2.5587 -2.8814,-4.9801 -1.0708,-2.4214 -2.5657,-4.6399 -3.3219,-4.93 -0.7562,-0.2902 -1.2062,-0.814 -1,-1.164 0.2062,-0.3501 -0.01,-1.5821 -0.4762,-2.738 -0.4682,-1.1558 -0.9703,-2.9997 -1.1161,-4.0975 -0.1457,-1.0979 -1.0422,-2.7202 -1.9923,-3.6054 -0.9501,-0.8851 -1.7274,-2.071 -1.7274,-2.6353 0,-0.5643 -0.7497,-1.4941 -1.6658,-2.0662 -2.7282,-1.7038 -9.2622,-16.6409 -9.2622,-21.1738 0,-0.8956 -0.3682,-1.8558 -0.8181,-2.1339 -1.6281,-1.0062 -3.378,-5.9907 -3.5894,-10.2233 -0.1187,-2.3789 -0.4996,-4.1534 -0.8463,-3.9434 -0.3467,0.21 -0.6305,-0.072 -0.6305,-0.6258 0,-0.5543 -0.5773,-1.4298 -1.2829,-1.9458 -0.7056,-0.516 -1.4873,-2.6341 -1.7372,-4.707 -0.2498,-2.0728 -0.9734,-4.9078 -1.6079,-6.2998 -0.7009,-1.5376 -1.0442,-4.5102 -0.8748,-7.5745 0.1533,-2.7741 -0.3039,-8.18518 -1.0161,-12.0247 -1.2497,-6.73753 -1.2363,-7.06012 0.385,-9.2531 1.5961,-2.15883 1.8456,-4.06508 0.9009,-6.8828 -0.4177,-1.24596 -2.6445,-14.17707 -4.1256,-23.95741 -0.4201,-2.77407 -0.9725,-6.36765 -1.2276,-7.98585 -0.2549,-1.6182 -0.661,-5.02267 -0.9022,-7.56551 -0.4591,-4.84089 -3.11,-13.37323 -5.1581,-16.6021 -0.6598,-1.04023 -0.8725,-1.89715 -0.4726,-1.90422 0.4,-0.007 0.2354,-0.32483 -0.3657,-0.7061 -0.601,-0.38128 -1.1536,-1.50045 -1.2281,-2.48709 -0.074,-0.98658 -0.6227,-1.98093 -1.2187,-2.20961 -0.596,-0.22874 -1.0836,-0.99518 -1.0836,-1.70319 0,-0.70802 -0.3489,-1.28732 -0.7751,-1.28732 -0.4262,0 -1.9336,-2.31846 -3.3495,-5.15218 -1.4161,-2.8337 -3.0126,-5.6799 -3.5479,-6.32489 -0.5353,-0.645 -0.7482,-1.39776 -0.4732,-1.67278 0.2751,-0.27504 -0.04,-1.03948 -0.6986,-1.69875 -0.6593,-0.65928 -1.614,-2.74058 -2.1214,-4.62513 -0.7885,-2.9286 -2.39,-6.27175 -7.1405,-14.90576 -0.4802,-0.87314 -1.268,-2.10071 -1.7504,-2.72795 -0.4823,-0.62722 -1.4001,-2.45555 -2.0394,-4.06293 -0.6393,-1.60739 -2.3105,-4.10121 -3.7136,-5.54181 -1.403,-1.4406 -4.4093,-5.55007 -6.6807,-9.13215 -2.2713,-3.58209 -5.1967,-7.30178 -6.5008,-8.26596 -1.3042,-0.96422 -3.2816,-3.10512 -4.3943,-4.7576 -2.9861,-4.43473 -12.5605,-13.86595 -17.5794,-17.31648 -2.4106,-1.65724 -6.4633,-4.50481 -9.0062,-6.32792 -2.5428,-1.82311 -5.3041,-3.31538 -6.1362,-3.31615 -0.8319,-0.001 -2.5473,-0.53636 -3.8118,-1.19023 -1.2644,-0.65387 -3.7989,-1.44969 -5.6323,-1.7685 -5.0739,-0.88228 -10.142,-2.69547 -13.6329,-4.87737 -6.4676,-4.04247 -20.9331,-10.47499 -24.586,-10.93295 -6.7695,-0.84868 -9.6166,-1.6524 -12.6091,-3.55941 -1.6182,-1.03121 -4.4553,-2.35286 -6.3046,-2.93699 -3.455,-1.09128 -4.2501,-1.5044 -14.2771,-7.41914 -3.229,-1.90473 -6.3498,-3.46314 -6.9351,-3.46314 -0.5853,0 -0.9695,-0.47285 -0.8539,-1.05077 0.1508,-0.75442 -1.6827,-1.121 -6.5014,-1.29981 -3.7249,-0.13822 -6.2343,-0.54409 -5.6389,-0.91201 1.3352,-0.82524 -2.1397,-0.97896 -24.678,-1.09169 -12.3993,-0.062 -18.2636,0.21619 -19.5968,0.92969 -1.0464,0.56001 -3.1083,1.04739 -4.5819,1.08306 -1.4737,0.0357 -3.5816,0.76626 -4.6842,1.62352 -2.3699,1.84251 -6.7477,1.9604 -11.3895,0.30673 -1.8188,-0.64795 -3.6515,-0.96509 -4.0728,-0.70471 -0.4213,0.26036 -1.7702,-0.25289 -2.9978,-1.14056 -1.2274,-0.88767 -4.3122,-2.48696 -6.855,-3.55398 -2.5429,-1.06701 -5.1909,-2.42165 -5.8843,-3.01032 -2.317,-1.96667 -10.4604,-6.1926 -14.6609,-7.60801 -9.2175,-3.10605 -13.3449,-3.74584 -24.1647,-3.74584 -18.3888,0 -30.2575,1.4463 -44.3951,5.40993 -4.3236,1.21217 -10.2718,1.83192 -12.1889,1.27 -0.8803,-0.25803 -6.3544,0.31706 -17.6529,1.85457 -3.6987,0.50332 -9.1837,1.96791 -12.1888,3.25463 -5.2109,2.23113 -6.2136,2.35588 -21.6458,2.69297 -8.9,0.1944 -16.1818,0.0417 -16.1818,-0.33942 0,-0.38108 -0.7566,-0.69288 -1.6812,-0.69288 -1.0155,0 -1.7075,-0.58253 -1.7476,-1.47107 -0.036,-0.80909 -0.2374,-1.05767 -0.4464,-0.5524 -0.2655,0.64206 -1.7451,0.68345 -4.9142,0.13746 -5.5716,-0.95991 -12.7306,0.35134 -16.3003,2.98561 -8.3593,6.16862 -10.9762,8.3972 -13.3955,11.40772 -1.4877,1.85116 -2.7048,3.81083 -2.7048,4.35483 0,1.21434 -4.7559,6.78348 -6.7771,7.93593 -1.941,1.10673 -7.6381,9.62564 -7.0614,10.55885 0.2471,0.39978 -0.4483,2.15948 -1.5453,3.91044 -4.2999,6.86345 -5.0864,10.45573 -4.5363,20.71975 0.7032,13.12135 2.2984,24.82589 3.5548,26.08227 0.5791,0.5791 1.1935,1.78273 1.3652,2.6747 0.2611,1.35569 1.069,1.63366 4.9242,1.6942 10.9181,0.17146 16.3198,-0.945 23.0222,-4.75838 3.694,-2.10171 5.9781,-3.87412 5.4296,-4.21314 -0.5399,-0.33367 0.1676,-0.82999 1.646,-1.1547 1.4261,-0.31321 4.7863,-1.98311 7.4672,-3.71089 6.1044,-3.93408 5.9237,-3.86564 19.5852,-7.41723 9.1926,-2.38983 13.4241,-3.03015 22.2762,-3.3709 9.7405,-0.37493 11.4109,-0.22843 15.3723,1.34827 2.4444,0.97291 5.1477,1.76892 6.0074,1.76892 1.6028,0 6.7808,5.22611 6.7808,6.84375 0,0.49553 2.5945,3.60313 5.7655,6.90581 5.7732,6.01284 11.1348,13.60101 12.3084,17.41991 0.344,1.11911 0.9037,2.41301 1.244,2.87534 0.3402,0.46235 1.2382,2.70064 1.9954,4.97401 0.7574,2.27335 2.0404,4.87022 2.8512,5.77081 1.242,1.37946 1.4743,3.32018 1.4743,12.31768 0,10.40181 0.061,10.76089 2.3547,13.77377 2.9903,3.92854 4.7904,8.22459 4.7904,11.43244 0,4.00946 1.6607,6.60295 6.0186,9.39945 2.2378,1.43597 4.0688,2.96235 4.0688,3.39192 0,0.68195 12.9984,7.23808 17.0224,8.58567 1.5207,0.50928 1.855,2.80822 0.9176,6.3098 -0.4738,1.77009 -0.8539,1.91932 -3.5611,1.39799 -1.6669,-0.321 -3.6926,-0.57427 -4.5017,-0.5628 -0.8091,0.0115 -1.4711,-0.29188 -1.4711,-0.67412 0,-0.38223 -0.6579,-0.64245 -1.4621,-0.57822 -0.8041,0.0642 -1.8288,-0.70967 -2.2772,-1.71976 -0.6716,-1.51313 -3.6477,-3.62748 -5.1059,-3.62748 -0.1979,0 0.027,1.01665 0.499,2.25924 0.5185,1.36372 0.6365,5.29015 0.2977,9.906 -0.5506,7.50027 -0.5227,7.6644 1.4545,8.56521 4.7068,2.14462 17.2629,14.55421 16.0019,15.81521 -0.3121,0.31208 0.076,0.92733 0.8617,1.36722 0.7911,0.4427 1.2169,1.35282 0.9538,2.03847 -0.2614,0.68125 -0.1007,1.2387 0.3572,1.2387 1.1907,0 1.9234,3.35663 0.7398,3.38918 -0.5347,0.0147 -0.3101,0.52923 0.4989,1.14345 1.533,1.16365 2.1021,3.52203 0.6305,2.61255 -0.4623,-0.2857 -0.8406,0.0702 -0.8406,0.79104 0,0.72075 0.2954,1.31051 0.6565,1.31051 1.3607,0 1.1121,11.26628 -0.3062,13.87008 -3.1936,5.8634 -4.9494,23.9579 -2.8584,29.4577 2.0502,5.3923 7.2411,9.728 14.4751,12.0904 1.7274,0.564 3.3547,1.3718 3.6163,1.7952 0.2626,0.4249 -0.2028,0.5257 -1.039,0.225 -0.8332,-0.2995 -1.2423,-0.2434 -0.9093,0.1248 0.333,0.3681 2.2244,0.7302 4.2031,0.8045 11.8723,0.4459 11.455,0.364 10.9863,2.1564 -0.3098,1.1845 -0.026,1.6812 0.9611,1.6812 2.9094,0 6.3609,2.5044 6.3609,4.6154 0,3.1633 -2.6647,4.1486 -8.3101,3.0727 -2.5957,-0.4947 -6.2326,-1.136 -8.0819,-1.425 -1.8494,-0.2891 -6.3497,-2.2031 -10.0008,-4.2534 -8.0126,-4.4996 -8.4177,-4.3178 -11.8373,5.3146 -2.0499,5.7741 -2.2246,7.1679 -1.8121,14.4539 0.5399,9.5343 1.3154,15.3083 2.212,16.4697 0.357,0.4624 0.9035,2.0317 1.2145,3.4873 0.311,1.4558 1.6681,4.1037 3.0158,5.8843 1.3478,1.7807 2.4609,3.5769 2.4738,3.9917 0.036,1.1791 5.9181,8.0723 6.8876,8.0723 0.4771,0 1.9275,1.1349 3.2231,2.5219 1.2957,1.387 2.7714,2.5218 3.2794,2.5218 0.508,0 0.9237,0.3783 0.9237,0.8406 0,0.4624 0.5674,0.8406 1.2609,0.8406 0.6935,0 1.2609,0.3783 1.2609,0.8406 0,0.4624 0.7095,0.8407 1.5767,0.8407 2.2076,0 10.4511,3.7506 11.7905,5.3644 0.6799,0.8193 0.8967,2.1923 0.5588,3.5386 -0.4813,1.9178 -0.8977,2.1503 -3.2461,1.8121 -1.4817,-0.2133 -4.5854,-1.0651 -6.8971,-1.8929 -2.3117,-0.8278 -5.3174,-1.904 -6.6792,-2.3916 -1.362,-0.4876 -3.7262,-1.984 -5.2539,-3.3254 l -2.7776,-2.4388 0.029,2.3988 c 0.041,3.3211 1.995,12.1015 3.1875,14.3222 0.5423,1.0099 0.986,2.6176 0.986,3.5726 0,0.9832 0.547,1.7366 1.2609,1.7366 0.6936,0 1.261,0.3782 1.261,0.8406 0,0.4623 0.5716,0.8406 1.2703,0.8406 2.4711,0 8.7705,3.7635 8.7939,5.2538 0.013,0.8091 0.5905,1.4711 1.284,1.4711 0.6936,0 1.261,0.6857 1.261,1.5239 0,0.8382 1.1214,2.5983 2.4919,3.9114 1.3706,1.3131 2.3101,2.6816 2.0878,3.0413 -0.2223,0.3596 -0.046,0.8752 0.3914,1.1456 0.4376,0.2705 0.6787,1.526 0.5358,2.7901 -0.1429,1.2641 0.086,2.9599 0.5081,3.7684 0.5908,1.1311 0.1313,2.1003 -1.9931,4.2031 -3.9996,3.959 -6.7372,5.528 -12.0689,6.9166 -7.6444,1.9912 -10.4423,3.2158 -10.5129,4.6015 -0.044,0.8658 -0.2085,0.9501 -0.4903,0.2515 -0.772,-1.9132 -1.7307,-1.1163 -7.5849,6.3045 -7.5508,9.5716 -7.309,9.0633 -5.7745,12.1392 0.73,1.4635 1.5616,4.6543 1.848,7.0907 0.4908,4.1755 0.4043,4.4592 -1.5058,4.9386 -2.5461,0.639 -9.9633,-3.3143 -9.9633,-5.3104 0,-1.0192 -0.6889,-0.6941 -2.6187,1.2358 l -2.6188,2.6187 1.8681,2.5268 c 1.6405,2.219 1.8031,3.1779 1.3341,7.8727 -0.2937,2.9403 -0.6516,7.198 -0.7953,9.4615 -0.179,2.8176 -0.7523,4.4744 -1.8182,5.2538 -2.0766,1.5184 -2.6078,1.4472 -4.6825,-0.6275 -1.6491,-1.6491 -1.7261,-2.3213 -1.1644,-10.1685 l 0.6014,-8.4028 -1.8433,0.9865 c -4.828,2.5838 -11.707,4.1793 -18.1041,4.1988 l -6.7249,0.02 0.2307,13.6601 c 0.2775,16.4389 0.6275,19.2258 2.3316,18.5718 0.8681,-0.3331 1.0875,-0.079 0.7321,0.8469 -0.2792,0.7274 -1.2283,1.5513 -2.1092,1.8309 -0.8809,0.2795 -1.8367,1.5233 -2.1239,2.764 -0.9378,4.0502 -2.7012,6.0384 -5.3557,6.0384 -1.5005,0 -2.7843,-0.582 -3.265,-1.4801 -0.9325,-1.7425 -0.2583,-6.238 1.0684,-7.1234 0.6512,-0.4345 0.6268,-0.6213 -0.082,-0.6304 -0.7491,-0.01 -0.7037,-0.7408 0.1768,-2.8483 0.6516,-1.5594 1.0164,-3.0036 0.8108,-3.2093 -0.2057,-0.2056 -0.4092,-5.5492 -0.4523,-11.8746 l -0.078,-11.5007 -2.5212,2.5211 c -1.3866,1.3866 -2.8473,2.5212 -3.246,2.5212 -0.3987,0 -2.4411,1.4185 -4.5387,3.1522 -10.1072,8.3539 -10.8008,8.6163 -22.7683,8.6163 h -8.4179 l 0.2863,6.5148 c 0.3702,8.4223 -0.6189,11.1381 -4.0566,11.1381 -3.2359,0 -4.2031,-2.2373 -4.2031,-9.7218 0,-2.9751 -0.3707,-5.4092 -0.8238,-5.4092 -0.4532,0 -3.3848,2.3248 -6.5148,5.1662 -3.13,2.8415 -6.7499,5.9526 -8.0441,6.9137 -1.2943,0.9612 -3.8848,3.776 -5.7567,6.2553 -3.357,4.4463 -3.3798,4.5242 -1.6708,5.7213 2.5832,1.8093 6.8386,15.8131 6.8386,22.5046 0,3.6837 0.3852,5.6707 1.2363,6.3771 2.5998,2.1577 0.4701,6.7453 -3.1313,6.7453 -4.0525,0 -5.7556,-3.2518 -6.903,-13.1802 -0.74,-6.4026 -1.5835,-9.9673 -2.8484,-12.0382 -0.9884,-1.6182 -1.7986,-3.7776 -1.8003,-4.7988 -0.01,-1.8071 -0.1193,-1.7846 -4.3496,0.8406 -4.0865,2.5359 -4.8156,2.6966 -12.1889,2.6858 -7.3038,-0.011 -7.8423,0.1049 -7.8413,1.6813 0,0.9309 1.5137,3.8717 3.3624,6.535 3.7683,5.4286 4.1742,7.693 1.6238,9.0579 -2.2735,1.2167 -4.943,-0.4815 -7.5781,-4.8208 -1.0672,-1.7574 -2.408,-3.4832 -2.9796,-3.8352 -0.5716,-0.352 -1.4557,-2.6462 -1.9648,-5.0983 l -0.9256,-4.4584 -4.8062,-0.9051 c -2.6434,-0.4978 -5.6573,-1.1793 -6.6976,-1.5145 -1.7425,-0.5613 -1.8913,-0.351 -1.8913,2.6732 0,2.843 0.4879,3.6903 3.6444,6.3288 5.1418,4.298 7.2413,10.7773 8.5878,26.5016 0.5857,6.8416 -0.4824,11.3272 -3.141,13.1892 -0.9394,0.658 -1.4582,1.6006 -1.1529,2.0946 0.3326,0.5381 0.066,0.7105 -0.6644,0.4302 -0.6708,-0.2574 -1.4693,-0.064 -1.7745,0.4299 -0.3052,0.4938 -0.132,0.8979 0.3848,0.8979 0.517,0 0.6901,0.404 0.385,0.8979 -0.3053,0.4939 -1.0528,0.7069 -1.6613,0.4734 -0.6085,-0.2335 -1.3149,0.119 -1.5699,0.7833 -0.2548,0.6643 -0.9481,1.2189 -1.5406,1.2325 -0.5924,0.013 -2.2773,1.1169 -3.7441,2.4519 -2.1015,1.9126 -2.7655,3.3119 -3.1316,6.5993 -0.4484,4.0275 -0.3842,4.1882 1.8518,4.6353 1.2739,0.2549 5.0474,1.6913 8.3853,3.1921 5.7051,2.5651 6.0754,2.8963 6.1742,5.5219 0.058,1.5363 0.1523,3.8744 0.2102,5.1959 0.1025,2.3441 0.01,2.3979 -3.8674,2.2116 -4.3981,-0.2115 -7.3704,-1.7752 -11.1586,-5.8705 -1.387,-1.4994 -3.2783,-2.9767 -4.2031,-3.2829 -0.9246,-0.3061 -2.816,-1.4863 -4.203,-2.6227 -2.2859,-1.8728 -2.5172,-2.5192 -2.4723,-6.909 0.077,-7.4743 2.4865,-11.9647 8.1314,-15.1505 2.5404,-1.4337 6.0062,-4.2275 7.7018,-6.2084 l 3.083,-3.6018 -0.4932,-8.4346 c -0.7524,-12.866 -2.5374,-17.8403 -7.5901,-21.151 -3.0921,-2.0259 -4.8071,-6.5813 -4.2376,-11.2563 0.4867,-3.9965 0.4521,-4.0729 -2.2346,-4.9286 -1.501,-0.478 -3.8614,-0.9798 -5.2455,-1.1149 -2.4073,-0.2352 -2.5041,-0.1184 -2.2326,2.6963 0.1622,1.6824 1.7187,5.0504 3.6355,7.8663 4.0152,5.8987 3.9697,8.9459 -0.1338,8.9459 -1.6159,0 -2.7888,-0.5841 -3.376,-1.6812 -0.4948,-0.9247 -1.4284,-1.6812 -2.0745,-1.6812 -0.646,0 -1.4424,-0.8438 -1.7698,-1.8751 -0.3273,-1.0313 -1.2897,-2.8282 -2.1386,-3.9929 -0.849,-1.1648 -1.7162,-3.5616 -1.927,-5.3262 -0.2108,-1.7645 -0.7292,-3.6559 -1.1519,-4.203 -0.4227,-0.5471 -1.6212,-4.7776 -2.6632,-9.4009 -1.042,-4.6234 -2.1093,-9.3518 -2.3717,-10.5077 -0.2623,-1.1558 -0.5078,-2.3377 -0.5454,-2.6264 -0.2283,-1.7483 -12.9773,-12.1886 -16.87,-13.8151 l -2.953,-1.2339 v 2.5035 c 0,2.7083 -2.286,4.6043 -4.5184,3.7476 -1.783,-0.6841 -4.9184,-5.1033 -6.8049,-9.591 -2.0389,-4.8503 -6.1111,-9.2467 -8.5649,-9.2467 -1.048,0 -3.8249,-0.7566 -6.1708,-1.6812 -2.8398,-1.1193 -6.2475,-1.6813 -10.196,-1.6813 -4.6579,0 -6.3895,0.3609 -8.0681,1.6813 -2.2513,1.7709 -4.4325,2.2148 -4.4325,0.9022 0,-0.4285 0.6621,-0.9519 1.4711,-1.1634 0.9765,-0.2551 0.7493,-0.4172 -0.6754,-0.482 -1.5191,-0.069 -2.638,-0.9576 -3.8283,-3.0404 l -1.6819,-2.943 -5.5765,4.5997 c -4.6746,3.8559 -6.13,5.7329 -8.9992,11.6058 -3.3683,6.8942 -3.4313,7.193 -3.9564,18.7344 -0.4674,10.2767 -0.3624,11.8706 0.8489,12.8758 0.7604,0.631 1.3824,1.6684 1.3824,2.3054 0,0.6369 0.3783,1.1579 0.8407,1.1579 0.4623,0 0.8406,0.5088 0.8406,1.1307 0,2.1347 2.9607,3.6926 13.4497,7.077 7.8427,2.5305 10.7182,3.8385 11.3375,5.157 0.9658,2.0558 2.4493,2.1553 9.0336,0.6059 4.0591,-0.9552 5.1686,-0.9532 7.0311,0.013 2.0759,1.077 7.0132,1.6579 6.0694,0.7141 -0.2382,-0.2382 -2.6544,-1.0117 -5.3694,-1.7189 -2.7148,-0.7071 -5.5146,-1.7825 -6.2216,-2.3899 -0.707,-0.6073 -2.5932,-1.5436 -4.1915,-2.0808 -3.7741,-1.2683 -7.0037,-4.2609 -5.958,-5.5208 0.4867,-0.5865 0.4528,-1.4076 -0.09,-2.175 -0.7174,-1.0143 -0.788,-0.972 -0.3986,0.2383 0.2602,0.8092 0.1642,1.4711 -0.2135,1.4711 -0.801,0 -9.3479,-9.3248 -9.3479,-10.1986 0,-2.0267 3.5086,-8.2949 4.6431,-8.2949 0.7372,0 1.1311,0.3387 0.8753,0.7525 -0.2558,0.4139 0.1841,1.0017 0.9776,1.3062 1.076,0.4129 1.1753,0.7189 0.3903,1.204 -0.7478,0.4622 -0.2731,1.2397 1.6405,2.6868 1.4811,1.12 4.8024,3.765 7.3806,5.8778 2.5782,2.1127 7.3355,5.1675 10.5719,6.7882 9.4388,4.727 11.781,6.4007 13.2404,9.461 0.756,1.5853 2.1527,3.1295 3.1037,3.4313 1.4214,0.4512 2.3655,2.9798 1.5189,4.0682 -0.1156,0.1485 0.4553,0.9356 1.2686,1.749 0.8134,0.8133 1.2522,1.8456 0.9751,2.2939 -0.2771,0.4483 0.132,2.1548 0.9091,3.7924 1.2254,2.5824 1.2798,3.6638 0.4099,8.1537 -0.5517,2.847 -1.1984,6.2309 -1.4372,7.5197 -0.5773,3.1156 2.8914,9.739 5.44,10.3873 1.0403,0.2647 1.8914,0.7916 1.8914,1.171 0,0.8824 8.4793,2.66 11.5414,2.4196 3.6583,-0.2872 10.1389,0.2527 7.9904,0.6656 -1.0471,0.2013 -1.6958,0.7027 -1.4413,1.1143 0.2673,0.4326 1.36,0.4073 2.589,-0.06 2.7682,-1.0525 2.5015,-1.1761 3.6983,1.7133 0.5745,1.387 1.3415,2.5218 1.7045,2.5218 0.9137,0 -0.088,3.6424 -1.2105,4.4004 -0.5399,0.3647 -0.2259,0.6333 0.7669,0.656 1.6288,0.037 1.6315,0.067 0.088,0.9636 -3.1172,1.8102 -20.742,-1.3406 -27.8332,-4.9758 -4.2132,-2.1599 -5.9358,-4.114 -10.4368,-11.8401 -3.5964,-6.173 -3.7979,-7.3292 -2.1697,-12.4476 0.4881,-1.5343 0.1633,-1.8982 -2.147,-2.4056 -2.0802,-0.457 -2.9037,-0.2737 -3.4917,0.777 -1.9102,3.4136 -9.3587,11.5286 -11.6861,12.7322 -1.4949,0.773 -4.1155,1.2352 -6.2573,1.1034 -3.3608,-0.2066 -3.8909,0.041 -6.022,2.8212 -1.2852,1.6763 -3.2721,3.4842 -4.4152,4.0176 -1.1432,0.5333 -3.3293,2.431 -4.8581,4.2171 -2.2767,2.6597 -3.4978,3.3408 -6.7481,3.7632 -2.1825,0.2836 -4.9724,1.0617 -6.1995,1.729 -1.2272,0.6673 -3.2356,1.2133 -4.4633,1.2133 -2.583,0 -15.627,6.0147 -17.2283,7.9441 -0.5946,0.7164 -0.8297,1.3027 -0.5224,1.3027 0.6759,0 -3.4237,7.3122 -5.4198,9.667 -1.6769,1.9784 -3.4163,6.788 -2.7102,7.4941 0.2705,0.2704 0.028,0.4917 -0.5385,0.4917 -0.5667,0 -0.842,0.3046 -0.612,0.6769 0.2301,0.3723 0.08,2.1691 -0.3335,3.9929 -0.4135,1.8239 -0.4304,3.4288 -0.038,3.5665 0.9678,0.3394 0.073,3.5323 -0.9895,3.5323 -0.4776,0 -0.3902,0.5487 0.201,1.261 0.723,0.8711 0.7548,1.2609 0.1029,1.2609 -0.519,0 -0.9436,0.3664 -0.9436,0.8142 0,0.4478 0.6331,0.5713 1.4069,0.2743 1.0658,-0.409 1.276,-0.1988 0.867,0.867 -0.2969,0.7738 -0.1735,1.4069 0.2744,1.4069 0.4478,0 0.8142,0.5793 0.8142,1.2873 0,0.708 0.5398,1.4945 1.1995,1.7476 0.6598,0.2532 2.0349,2.2273 3.0559,4.3868 2.4078,5.0934 2.5771,12.8339 0.3347,15.3116 -0.8493,0.9385 -1.5994,2.457 -1.667,3.3746 -0.124,1.6831 -3.6528,5.5767 -4.736,5.2257 -0.3214,-0.1042 -0.8324,0.9396 -1.1355,2.3195 -0.3031,1.3799 -2.2086,4.714 -4.2345,7.409 -4.398,5.8506 -5.9463,9.3744 -4.5092,10.2625 0.559,0.3456 0.8169,1.7339 0.5985,3.2221 -0.2515,1.7138 -0.029,2.615 0.6474,2.615 0.5673,0 2.3004,1.269 3.8514,2.82 2.7373,2.7373 4.3433,3.5678 8.4163,4.3522 1.0756,0.2072 2.083,0.7586 2.2387,1.2255 0.1556,0.4669 1.7645,0.849 3.5754,0.849 1.8108,0 3.2923,0.3605 3.2923,0.801 0,0.8324 6.205,0.4021 12.1437,-0.8421 3.6372,-0.7619 5.9415,-0.07 3.3519,1.0069 -1.0148,0.4219 -0.4735,0.4963 1.4409,0.1979 4.2596,-0.6639 12.294,1.1048 16.0396,3.531 1.7238,1.1166 3.7098,2.0302 4.4132,2.0302 0.7034,0 1.279,0.4035 1.279,0.8967 0,0.4932 0.8535,2.1009 1.8966,3.5726 1.0432,1.4718 2.0157,3.3826 2.1612,4.2463 0.2897,1.7195 1.2687,3.0915 4.1107,5.7609 2.1023,1.9745 14.0261,7.3794 16.2798,7.3794 2.6581,0 9.1762,3.2629 9.1762,4.5935 0,1.9968 3.6624,1.5984 12.8777,-1.4009 z m 64.0384,-181.4025 c 0.2857,-0.4623 0.6862,-0.8406 0.8902,-0.8406 0.2038,0 0.3706,0.3783 0.3706,0.8406 0,0.4623 -0.4005,0.8406 -0.8901,0.8406 -0.4897,0 -0.6565,-0.3783 -0.3707,-0.8406 z m 214.5663,-178.5394 c -0.809,-0.6142 -1.471,-1.6778 -1.471,-2.3635 0,-1.8933 -7.944,-8.1878 -11.0931,-8.7898 -1.6923,-0.3235 -4.205,-1.9606 -6.4328,-4.1911 -2.0106,-2.0131 -4.0532,-3.6601 -4.539,-3.6601 -0.4858,0 -2.739,-1.9355 -5.007,-4.3009 -3.1535,-3.2892 -4.0632,-4.8217 -3.867,-6.5148 0.1991,-1.7188 0.7796,-2.2739 2.5957,-2.4825 1.9517,-0.2242 3.7615,1.0477 10.9279,7.6797 4.7239,4.3717 10.0062,8.5393 11.7386,9.2614 3.8305,1.5966 10.7204,7.2203 10.7204,8.7503 0,0.6101 0.4876,1.2965 1.0836,1.5251 1.3675,0.5248 1.6497,3.7277 0.4553,5.1668 -1.1489,1.3844 -3.2249,1.3516 -5.1116,-0.081 z m -244.8284,360.9524 c 0.2857,-0.4624 0.1189,-0.8406 -0.3707,-0.8406 -0.4897,0 -0.8902,0.3782 -0.8902,0.8406 0,0.4623 0.1668,0.8406 0.3707,0.8406 0.2039,0 0.6044,-0.3783 0.8902,-0.8406 z m -142.6609,-44.888 c -0.5962,-0.6468 -1.2163,-1.0504 -1.3782,-0.8966 -0.4987,0.4737 0.7651,2.0727 1.638,2.0727 0.4533,0 0.3364,-0.5293 -0.2598,-1.1761 z m 80.5713,-131.2129 c 4.5246,-5.691 6.2369,-7.2432 8.4474,-7.6579 1.5249,-0.2861 3.3513,-0.298 4.0588,-0.027 1.9691,0.7557 4.8156,-2.5294 4.1288,-4.765 -0.3122,-1.0167 -0.6699,-1.966 -0.7948,-2.1099 -0.1248,-0.1438 -2.5372,0.2157 -5.3607,0.7989 -4.0258,0.8315 -5.7359,0.8426 -7.9242,0.052 -1.5347,-0.5549 -6.048,-1.009 -10.0294,-1.009 -6.1702,0 -7.3084,0.2183 -7.7083,1.4786 -0.2582,0.8132 -1.7798,3.4683 -3.3814,5.9002 l -2.912,4.4217 1.6874,2.8599 c 1.8796,3.1858 8.3382,7.0839 11.8494,7.1517 1.8563,0.036 3.286,-1.2416 7.939,-7.0939 z m 297.6151,-7.3103 c -0.2684,-0.6706 -0.4676,-0.4714 -0.5079,0.5079 -0.036,0.8861 0.1622,1.3826 0.4415,1.1033 0.2793,-0.2794 0.3092,-1.0044 0.066,-1.6112 z m -23.5372,-1.6812 c -0.2684,-0.6706 -0.4675,-0.4714 -0.5079,0.5078 -0.036,0.8862 0.1622,1.3827 0.4415,1.1033 0.2794,-0.2793 0.3092,-1.0043 0.066,-1.6111 z m -175.7551,-21.7011 c 0.5642,-0.5642 3.1273,-0.5205 7.7413,0.132 5.3854,0.7615 7.5873,0.7471 10.0425,-0.066 4.0132,-1.3291 5.2535,-2.394 12.313,-10.5709 3.1934,-3.6987 7.3544,-8.0346 9.2468,-9.6354 1.8925,-1.6008 5.4795,-4.7419 7.9713,-6.9803 2.4917,-2.2384 6.4636,-5.0804 8.8264,-6.3155 3.9649,-2.0726 5.2335,-2.2698 16.4634,-2.5594 l 12.1674,-0.3138 7.8166,-5.875 c 5.0548,-3.7993 8.2092,-6.8144 8.9278,-8.5335 0.6112,-1.4621 1.6955,-3.1428 2.4095,-3.735 2.0355,-1.688 12.9319,-3.6412 19.4872,-3.4931 7.2733,0.1643 12.8681,-1.6286 15.1569,-4.8572 0.913,-1.2879 4.4712,-4.9895 7.9071,-8.2259 6.0459,-5.6949 12.7016,-13.4779 17.0561,-19.9453 2.1618,-3.2106 7.4993,-7.3746 9.4531,-7.3746 0.6013,0 1.7549,-0.7311 2.5635,-1.6246 0.8086,-0.8935 2.0049,-1.4193 2.6586,-1.1685 0.6536,0.2509 2.1669,-0.185 3.3626,-0.9685 1.1958,-0.7835 2.9898,-1.2265 3.9865,-0.9844 4.0105,0.9741 7.4542,-5.2737 4.334,-7.8632 -0.6935,-0.5756 -1.2609,-1.5665 -1.2609,-2.202 0,-2.1788 -5.7595,-7.5819 -9.1717,-8.6042 -4.4946,-1.3466 -7.6983,-5.4434 -10.1082,-12.926 -1.0823,-3.3603 -1.8903,-6.2386 -1.7956,-6.3963 0.095,-0.1577 -0.4736,-0.7588 -1.2627,-1.3358 -1.1815,-0.864 -1.2232,-1.1304 -0.2359,-1.5093 0.9704,-0.3723 1.0844,-1.7202 0.598,-7.0702 -0.3304,-3.6357 -0.6278,-7.386 -0.6607,-8.3342 -0.033,-0.9482 -1.785,-3.407 -3.8935,-5.464 -5.8795,-5.7358 -8.217,-9.7924 -8.0584,-13.9853 0.074,-1.9606 -0.6483,-6.4197 -1.6056,-9.9089 -0.9573,-3.4893 -1.5025,-7.191 -1.2115,-8.226 0.3857,-1.3724 0.3071,-1.5605 -0.2904,-0.6948 -1.982,2.8714 -1.3801,-7.5985 0.769,-13.3759 2.0348,-5.47 5.1399,-11.6922 6.3261,-12.6767 1.8891,-1.5678 1.3695,-5.2 -1.1954,-8.3572 -1.3062,-1.608 -2.6658,-3.6801 -3.0212,-4.6049 -1.1278,-2.9344 -2.0023,-10.8944 -1.2942,-11.7795 0.992,-1.2397 1.3826,-17.1741 0.4288,-17.4896 -0.4387,-0.145 0.023,-1.4162 1.0259,-2.8247 1.003,-1.4086 1.5845,-2.8002 1.2922,-3.0924 -0.2923,-0.2922 -0.035,-2.0358 0.572,-3.8746 0.9792,-2.9671 0.8847,-4.25108 -0.8403,-11.41238 -1.7009,-7.06126 -2.4038,-8.58095 -5.6274,-12.16638 -2.0261,-2.25345 -5.0858,-4.93379 -6.7995,-5.95637 -1.7136,-1.02251 -4.3426,-3.00644 -5.8422,-4.40863 l -2.7266,-2.54947 0.5374,-9.40927 c 0.4894,-8.56827 0.3746,-9.74562 -1.2848,-13.17335 -1.0217,-2.11053 -1.5799,-4.39539 -1.2708,-5.20114 0.3757,-0.97887 -0.394,-2.42312 -2.4142,-4.53002 -3.0321,-3.16229 -6.9702,-10.05464 -6.1904,-10.8344 0.2383,-0.23829 -0.6792,-1.62017 -2.039,-3.07085 -1.7735,-1.89205 -2.4734,-3.48094 -2.4762,-5.62173 0,-1.64126 -0.413,-3.39326 -0.913,-3.89324 -0.5,-0.49998 -1.278,-6.53349 -1.7288,-13.40776 -0.6881,-10.48965 -1.1497,-13.17429 -2.8718,-16.70176 -1.1286,-2.31169 -2.6306,-5.52703 -3.3377,-7.14521 -2.5986,-5.94671 -5.9859,-10.76548 -10.9802,-15.62064 -2.8144,-2.73591 -5.8406,-6.23977 -6.7249,-7.78636 -2.5349,-4.43303 -6.1934,-5.81659 -15.4781,-5.85358 -8.7625,-0.0349 -16.3303,1.41646 -38.6682,7.41584 -1.6181,0.4346 -5.02,2.50125 -7.5596,4.59255 -2.5395,2.09132 -4.8971,3.80239 -5.239,3.80239 -0.3419,0 -3.1675,1.55828 -6.2792,3.46282 -7.9823,4.88574 -11.2423,5.86367 -21.2716,6.38116 -5.1941,0.268 -9.3453,0.88898 -10.0874,1.50895 -0.6935,0.57944 -2.4036,1.63143 -3.8002,2.33776 -3.3748,1.70678 -6.7404,5.14486 -10.0502,10.26677 -1.4938,2.31169 -3.5295,4.92511 -4.5237,5.80763 -0.9942,0.88251 -2.2198,3.13515 -2.7235,5.00589 -0.5038,1.87073 -1.7316,4.4648 -2.7285,5.76463 -0.9969,1.29982 -2.6637,3.45195 -3.7039,4.7825 -1.0403,1.33056 -1.8914,3.19338 -1.8914,4.13962 0,0.94625 -0.3129,1.91384 -0.6954,2.15016 -0.3824,0.23639 -1.3792,2.81205 -2.2151,5.72374 -1.8754,6.53293 -3.2153,9.9174 -3.9262,9.9174 -0.2981,0 -0.5244,0.47284 -0.503,1.05074 0.1831,4.92882 -0.4292,9.11987 -1.4867,10.17743 -0.6936,0.69348 -1.261,2.1873 -1.261,3.31954 0,1.13229 -0.5424,2.50881 -1.2053,3.059 -0.6629,0.55013 -3.3059,5.28767 -5.8735,10.52787 -2.618,5.34309 -6.7037,12.01085 -9.3027,15.18161 -2.549,3.10973 -6.2045,8.53738 -8.1234,12.06145 -1.919,3.52406 -3.9481,6.9748 -4.5094,7.66828 -0.5611,0.69349 -1.2387,2.69111 -1.5056,4.43916 -0.267,1.74799 -1.051,4.31195 -1.7423,5.69765 -1.2906,2.5871 -1.0041,4.061 2.0331,10.4582 4.5673,9.6199 6.3966,28.0638 3.6593,36.8932 -0.9902,3.1938 -3.7755,6.4067 -6.9643,8.0335 -3.4734,1.772 -15.1887,13.3635 -16.4404,16.2667 -1.4219,3.2978 -8.9913,12.3806 -11.3222,13.586 -2.0607,1.0657 -4.503,4.0726 -13.7752,16.96 -1.7078,2.3736 -3.1051,4.6792 -3.1051,5.1236 0,0.4443 -0.7565,1.4925 -1.6812,2.3293 -0.9246,0.8368 -1.6812,1.8403 -1.6812,2.2299 0,0.3896 -1.2753,2.5061 -2.8339,4.7033 -1.5587,2.1971 -3.301,5.4458 -3.8718,7.2192 -0.5708,1.7735 -2.6054,5.0186 -4.5214,7.2115 -3.9391,4.5085 -6.3019,7.4116 -12.3013,15.115 -2.3029,2.9569 -4.9573,5.9156 -5.8986,6.575 -0.9414,0.6594 -3.1634,3.1577 -4.9377,5.5518 -1.7743,2.3941 -4.6977,5.8963 -6.4967,7.7826 -8.5761,8.9929 -10.0344,11.5939 -10.9808,19.5849 -0.41,3.461 -0.072,5.2533 1.875,9.9381 1.3064,3.1435 2.4405,5.822 2.5203,5.952 0.08,0.1301 0.9248,0.3867 1.8777,0.5702 1.6808,0.3237 6.05,2.7962 6.901,3.9053 0.51,0.6645 12.8713,4.1053 16.3939,4.5633 3.0209,0.3928 5.5398,-0.7572 3.431,-1.5664 -1.999,-0.767 -1.6452,-4.5253 0.56,-5.9498 5.2045,-3.362 21.5628,-5.7217 27.1944,-3.9228 1.3405,0.4282 4.25,1.0212 6.4656,1.3178 2.7391,0.3666 4.9324,1.3331 6.8531,3.0194 3.4658,3.043 7.6491,4.6428 9.1006,3.4803 0.5683,-0.4551 3.3028,-1.4782 6.0769,-2.2735 2.774,-0.7952 5.3216,-1.8812 5.6612,-2.4131 1.6621,-2.603 -0.2279,-18.951 -2.4476,-21.1707 -0.8636,-0.8635 -3.1357,-1.2233 -7.6838,-1.2168 -10.072,0.015 -10.2632,-0.035 -9.6751,-2.5071 0.7847,-3.2989 1.7914,-4.1054 5.8927,-4.7204 2.6668,-0.3999 3.4604,-0.7972 2.6632,-1.3333 -1.0912,-0.7338 0.012,-0.655 7.9548,0.5684 4.633,0.7136 10.6641,8.3766 10.6641,13.5498 0,1.2616 0.4343,3.4947 0.965,4.9625 0.7358,2.0346 0.7131,4.3457 -0.095,9.7267 -0.5831,3.8819 -1.112,8.2874 -1.1751,9.7899 l -0.1148,2.7321 h -6.8282 c -5.0764,0 -7.8368,0.4461 -10.7593,1.7389 -4.2001,1.8579 -7.9638,1.6531 -9.7773,-0.532 -0.5509,-0.6638 -1.7212,-1.2069 -2.6007,-1.2069 -0.9505,0 -1.9377,-0.8906 -2.4339,-2.1957 -0.6251,-1.6441 -1.2626,-2.0838 -2.538,-1.7502 -0.9367,0.2449 -2.7268,-0.089 -3.9779,-0.7413 -2.6912,-1.404 -11.678,-1.578 -15.0393,-0.2912 -1.3016,0.4982 -4.2579,1.419 -6.5696,2.0462 l -4.203,1.1403 5.0492,0.055 c 2.7771,0.031 6.3707,-0.3316 7.9858,-0.8044 2.2636,-0.6627 4.1891,-0.5273 8.4006,0.5909 6.3818,1.6944 7.9299,2.9057 7.2378,5.6633 -0.4242,1.6899 -0.1425,2.0345 1.909,2.3356 1.3235,0.1942 3.1169,0.074 3.9852,-0.2669 3.0003,-1.1786 14.5268,-0.7959 17.7876,0.5905 1.7188,0.7309 4.0709,1.459 5.2268,1.6182 4.378,0.6028 6.6701,2.1554 12.2066,8.2684 5.095,5.6254 5.9165,6.217 7.6946,5.541 2.6452,-1.0057 8.1104,1.1447 12.2546,4.8221 1.7351,1.5396 3.4431,2.7992 3.7956,2.7992 0.3525,0 2.9257,2.1751 5.7183,4.8335 4.6374,4.4148 5.2009,5.3434 6.504,10.7179 0.7848,3.2363 1.4258,6.407 1.4246,7.046 0,0.6389 0.778,2.4241 1.7317,3.9671 1.4755,2.3875 1.9615,2.6633 3.2617,1.8513 1.2185,-0.7609 3.9739,-0.2367 13.6073,2.5889 6.6437,1.9487 13.4034,4.0551 15.0216,4.681 3.6343,1.4056 6.1266,1.5634 7.2321,0.4579 z m -32.4998,-176.394 c -2.1238,-1.6621 -2.5451,-2.5009 -2.178,-4.3366 0.2552,-1.2757 -0.043,-2.9868 -0.6778,-3.8936 -0.6232,-0.8897 -1.5667,-3.3089 -2.0966,-5.3759 -0.5299,-2.0671 -1.7019,-5.5307 -2.6043,-7.6969 -1.8563,-4.4563 -2.1592,-11.6459 -0.596,-14.1489 0.7087,-1.1349 0.7762,-2.0394 0.2101,-2.8129 -3.8682,-5.2849 -4.197,-6.114 -4.197,-10.5857 0,-2.5632 0.2719,-5.3224 0.6042,-6.1316 0.5677,-1.3823 0.8011,-1.3687 3.8621,0.2268 4.7481,2.4749 7.2129,5.369 6.5738,7.7189 -0.8491,3.1218 7.4415,10.1223 14.7007,12.4134 3.1173,0.9838 7.0343,2.7161 8.7045,3.8495 1.6702,1.1334 3.4444,2.0608 3.9427,2.0608 0.4983,0 4.0751,3.0933 7.9485,6.8739 7.354,7.1782 8.0864,8.7642 6.2626,13.5614 -1.0222,2.6883 -5.4907,3.619 -8.9913,1.8727 -3.0718,-1.5325 -8.0235,-0.4607 -11.2442,2.4339 -6.4861,5.8294 -15.5702,7.613 -20.224,3.9708 z m 13.2428,-11.16 c 1.9396,-0.8696 4.5876,-1.5825 5.8844,-1.5843 1.2968,0 3.596,-0.758 5.1094,-1.6808 2.687,-1.6382 2.7193,-1.7271 1.3744,-3.7796 -1.6896,-2.5786 -4.5655,-2.7217 -6.7258,-0.3347 -4.26,4.7074 -9.7532,4.9018 -13.4764,0.4772 -1.7934,-2.1315 -2.0944,-3.1684 -1.7232,-5.9362 0.4602,-3.4311 -0.8345,-5.4654 -3.518,-5.5282 -1.3639,-0.032 -1.0349,2.5141 1.5086,11.6735 2.7074,9.7502 3.5982,10.2656 11.5666,6.6931 z m 65.4038,-42.1141 c -5.4066,-2.3284 -10.0331,-5.4632 -15.6814,-10.6254 -4.4496,-4.0667 -4.6998,-4.1701 -15.2713,-6.3117 -10.515,-2.1302 -12.5826,-2.8058 -21.1773,-6.9204 -2.3184,-1.1098 -4.7175,-2.0179 -5.3314,-2.0179 -0.614,0 -2.0781,-0.7565 -3.2536,-1.6812 -1.1756,-0.9247 -2.5956,-1.6813 -3.1557,-1.6813 -1.3559,0 -6.1597,-2.4224 -6.7736,-3.4156 -0.761,-1.2312 -7.3508,-0.8715 -9.1644,0.5002 -1.7692,1.3382 -11.3476,1.6372 -14.3399,0.4477 -0.9246,-0.3676 -2.6067,-0.3221 -3.7378,0.1011 -2.2802,0.8531 -15.3845,-0.4329 -20.1719,-1.9795 -3.4359,-1.1101 -10.1351,-5.0398 -10.1351,-5.9452 0,-0.3501 0.4978,-0.6366 1.1062,-0.6366 0.6085,0 2.3146,-1.3649 3.7916,-3.0331 2.4343,-2.7496 2.979,-2.984 5.8288,-2.5073 1.7289,0.2891 6.5212,0.7578 10.6495,1.0415 6.2814,0.4317 7.9623,0.2702 10.3025,-0.9902 1.5381,-0.8283 3.078,-1.2043 3.422,-0.8355 0.344,0.3687 0.1502,0.8401 -0.4306,1.0475 -0.5808,0.2073 -0.8415,0.724 -0.5794,1.1481 0.2866,0.4637 1.0446,0.4671 1.902,0.01 1.688,-0.9034 9.5468,-1.9808 13.3301,-1.8275 1.4678,0.059 2.9087,-0.2801 3.2019,-0.7546 0.2933,-0.4744 1.1414,-0.8626 1.8846,-0.8626 0.7433,0 1.0678,0.2837 0.721,0.6304 -0.3468,0.3468 -1.0403,0.6304 -1.5411,0.6304 -0.5009,0 -1.0684,0.4729 -1.261,1.0508 -0.2273,0.682 0.5183,1.0508 2.1244,1.0508 7.4783,0 10.1446,0.9937 16.0864,5.9952 3.223,2.713 6.272,4.9328 6.7755,4.9328 0.5034,0 1.1331,0.5674 1.3992,1.261 0.3077,0.8018 1.2228,1.1271 2.5126,0.8932 1.1338,-0.2056 1.8138,-0.02 1.5417,0.4202 -0.268,0.4334 0.1388,0.788 0.9038,0.788 0.765,0 2.395,0.7028 3.6222,1.5617 1.2273,0.859 3.177,1.7784 4.3329,2.0431 1.1558,0.2647 3.6146,0.8769 5.4639,1.3603 1.8494,0.4835 4.8508,0.8881 6.6698,0.8991 6.1961,0.038 12.7065,2.482 17.0289,6.3937 2.2228,2.0117 4.5368,3.6702 5.1419,3.6856 0.6053,0.015 0.8666,0.4064 0.5809,0.8688 -0.2857,0.4623 -0.074,0.8406 0.4699,0.8406 1.1198,0 7.0956,5.0326 7.0956,5.9757 0,0.338 0.7821,1.5139 1.738,2.6133 1.7433,2.005 1.7536,3.9051 0.027,5.0581 -1.4714,0.9826 -3.156,0.7136 -7.6497,-1.2216 z m -116.6525,-44.0361 c -0.2793,-0.2793 -1.0044,-0.3092 -1.6111,-0.066 -0.6707,0.2684 -0.4715,0.4676 0.5078,0.5079 0.8861,0.036 1.3826,-0.1622 1.1033,-0.4415 z m 600.9993,128.1234 c -0.2683,-0.6706 -0.4675,-0.4715 -0.5079,0.5078 -0.036,0.8861 0.1623,1.3827 0.4416,1.1033 0.2793,-0.2793 0.3092,-1.0043 0.066,-1.6111 z m -20.3286,-77.1788 c -0.2857,-0.4623 -0.8977,-0.8406 -1.3601,-0.8406 -0.4624,0 -0.6068,0.3783 -0.3211,0.8406 0.2857,0.4623 0.8978,0.8406 1.3601,0.8406 0.4623,0 0.6069,-0.3783 0.3211,-0.8406 z m -21.702,-34.6227 c -0.2683,-0.6706 -0.4675,-0.4715 -0.5078,0.5078 -0.036,0.8862 0.1621,1.3827 0.4414,1.1034 0.2794,-0.2794 0.3093,-1.0044 0.066,-1.6112 z m 0.761,-64.35518 c -0.9041,-0.90406 -1.384,0.3621 -0.7494,1.97692 0.5953,1.51485 0.6404,1.51746 0.9347,0.0548 0.1702,-0.84532 0.087,-1.75945 -0.1853,-2.03152 z"
       id="path3189" />
  </g>
</svg>
