<?xml version="1.0" encoding="UTF-8"?>
<svg width="253px" height="340px" viewBox="0 0 253 340" version="1.1" xmlns="http://www.w3.org/2000/svg" xmlns:xlink="http://www.w3.org/1999/xlink">
    <title>lTWsUf01</title>
    <g id="Page-1" stroke="none" stroke-width="1" fill="none" fill-rule="evenodd">
        <g id="lTWsUf01" transform="translate(-0, 0)" fill="#000000" fill-rule="nonzero">
            <g id="Group" transform="translate(126.4629, 169.5677) scale(-1, 1) rotate(-180) translate(-126.4629, -169.5677)translate(0, 0)">
                <path d="M12.3686104,337.8 C4.06861044,333.3 0.668610439,327.2 0.0686104387,315.7 C-0.931389561,297.6 9.06861044,280.4 25.5686104,271.5 C29.3686104,269.4 29.8686104,268.8 29.4686104,266.5 C29.1686104,265.1 28.1686104,258.3 27.3686104,251.4 C24.9686104,231.2 25.0686104,229.5 31.5686104,199.2 C31.9686104,196.9 31.6686104,196.3 29.5686104,195.5 C22.9686104,193 14.8686104,182.2 14.8686104,175.9 C14.8686104,174.4 16.3686104,171.7 18.6686104,169.1 C25.6686104,161.3 31.8686104,152.4 31.8686104,150 C31.8686104,148.7 30.9686104,143.2 29.8686104,137.9 C27.4686104,126.5 27.3686104,123.4 29.1686104,123.4 C30.1686104,123.4 31.1686104,126.9 32.4686104,135.4 C33.4686104,142 34.7686104,147.4 35.3686104,147.4 C35.8686104,147.3 37.9686104,145.3 39.8686104,142.8 C43.4686104,138.1 57.4686104,125.4 61.8686104,122.7 L64.4686104,121.2 L64.1686104,100.7 C63.7686104,78.1 63.6686104,77.4 57.1686104,71.2 C48.6686104,63 37.0686104,61 28.8686104,66.4 C20.9686104,71.6 15.5686104,71.2 11.8686104,65.2 C10.2686104,62.6 9.86861044,60.1 9.86861044,53.4 C9.86861044,44.2 10.5686104,41 14.6686104,29.4 C17.8686104,20.4 23.0686104,14.6 29.8686104,12.4 C32.8686104,11.4 38.9686104,10.9 48.5686104,10.9 C62.5686104,10.9 62.7686104,10.9 65.5686104,8.2 C67.0686104,6.7 71.0686104,4.3 74.3686104,2.8 C79.6686104,0.3 81.5686104,0 90.3686104,0 C97.1686104,0 104.56861,0.9 113.36861,2.7 C125.66861,5.2 130.26861,5.9 149.56861,8.4 C165.26861,10.5 178.06861,16.1 188.56861,25.7 C192.06861,28.8 194.96861,31.4 195.16861,31.4 C195.26861,31.4 196.86861,31 198.76861,30.4 C205.66861,28.5 212.06861,34 213.46861,43 C214.76861,52.1 208.96861,56.1 201.86861,50.9 L198.36861,48.3 L197.66861,54.1 C197.26861,57.3 194.46861,67.1 191.46861,75.9 C182.56861,101.4 183.26861,104.2 201.36861,116.1 C219.56861,128 222.96861,130.6 231.36861,138.9 C239.56861,147.1 249.66861,161.1 251.76861,167.3 C255.56861,178.7 249.66861,189.7 239.06861,191.1 C233.66861,191.8 224.56861,187.6 216.36861,180.6 C213.06861,177.8 207.26861,172.8 203.36861,169.4 C199.56861,166.1 195.86861,163.4 195.16861,163.4 C194.36861,163.4 194.86861,165.1 196.36861,168.2 C202.36861,179.7 203.16861,192.7 198.86861,206.6 L196.86861,213.2 L199.76861,216.3 C209.06861,226.2 208.46861,242.6 198.66861,250.9 C189.36861,258.8 179.06861,257.8 169.26861,248.3 L165.26861,244.3 L159.46861,247 C156.26861,248.5 149.76861,250.7 144.96861,252 C134.86861,254.8 120.26861,255.2 109.86861,252.9 C102.66861,251.4 103.26861,251.1 98.5686104,258.4 C95.0686104,263.9 87.5686104,268.4 81.9686104,268.4 C76.2686104,268.4 70.3686104,265.8 65.9686104,261.3 C61.3686104,256.7 59.8686104,252.7 59.8686104,244.6 C59.8686104,239.2 60.3686104,236.7 62.3686104,233 L64.8686104,228.4 L61.4686104,223.1 C55.1686104,213.2 52.1686104,199.8 53.8686104,189 C54.9686104,182.1 57.2686104,174.8 59.0686104,172.7 C60.8686104,170.5 59.1686104,170 56.2686104,171.9 C51.7686104,174.8 45.1686104,182.1 41.9686104,187.7 C40.3686104,190.6 38.1686104,193.6 37.1686104,194.5 C35.8686104,195.6 34.3686104,200.3 32.2686104,209.5 C29.7686104,220.9 29.3686104,224.8 29.5686104,235.4 C29.6686104,242.3 30.3686104,252.6 31.0686104,258.4 C32.3686104,268.8 32.4686104,268.8 35.3686104,269.5 C49.3686104,272.6 68.9686104,288 75.3686104,300.8 C81.2686104,312.7 75.5686104,327.9 64.2686104,330 C59.6686104,330.8 52.6686104,329.9 48.7686104,327.9 C45.7686104,326.3 45.6686104,326.3 41.2686104,330.4 C38.7686104,332.7 34.6686104,335.5 32.0686104,336.6 C25.8686104,339.4 16.2686104,340 12.3686104,337.8 Z" id="Shape"></path>
            </g>
        </g>
    </g>
</svg>